<svg width="92" height="24" viewBox="0 0 92 24" fill="none" xmlns="http://www.w3.org/2000/svg">
<mask id="path-1-outside-1_2302_42729" maskUnits="userSpaceOnUse" x="25" y="8" width="67" height="11" fill="black">
<rect fill="white" x="25" y="8" width="67" height="11"/>
<path d="M26.6668 15.1163C27.0471 15.4593 27.6251 15.6308 28.4007 15.6308C29.1763 15.6308 29.7542 15.4593 30.1346 15.1163C30.5149 14.7658 30.7051 14.1393 30.7051 13.2369C30.7051 12.3122 30.5149 11.6708 30.1346 11.3129C29.7542 10.9549 29.1763 10.7759 28.4007 10.7759C27.6251 10.7759 27.0471 10.9549 26.6668 11.3129C26.2939 11.6634 26.1075 12.3047 26.1075 13.2369C26.1075 14.1393 26.2939 14.7658 26.6668 15.1163ZM28.4007 10.239C29.3776 10.239 30.1047 10.4702 30.582 10.9325C31.0668 11.3875 31.3092 12.1556 31.3092 13.2369C31.3092 14.2885 31.0668 15.0417 30.582 15.4966C30.1047 15.9441 29.3776 16.1678 28.4007 16.1678C27.4312 16.1678 26.7041 15.9441 26.2193 15.4966C25.7346 15.0417 25.4922 14.2885 25.4922 13.2369C25.4922 12.1556 25.7346 11.3875 26.2193 10.9325C26.7041 10.4702 27.4312 10.239 28.4007 10.239ZM35.6984 16.1678C34.5276 16.1678 33.7744 15.7464 33.4388 14.9037H33.3493V18.0136H32.734V10.4068H33.3493V11.5031H33.4388C33.7744 10.6603 34.5276 10.239 35.6984 10.239C36.6157 10.239 37.2869 10.459 37.712 10.899C38.1371 11.339 38.3496 12.1108 38.3496 13.2146C38.3496 14.3034 38.1371 15.0678 37.712 15.5078C37.2869 15.9478 36.6157 16.1678 35.6984 16.1678ZM35.5083 10.7647C34.1062 10.7647 33.3866 11.3651 33.3493 12.5658V13.7292C33.3493 14.1095 33.4089 14.4302 33.5283 14.6912C33.6476 14.9522 33.8117 15.1498 34.0205 15.2841C34.2367 15.4183 34.4642 15.5115 34.7028 15.5637C34.9415 15.6159 35.21 15.642 35.5083 15.642C36.3211 15.642 36.8954 15.4742 37.231 15.1386C37.574 14.8031 37.7456 14.1617 37.7456 13.2146C37.7456 12.26 37.574 11.6149 37.231 11.2793C36.8954 10.9363 36.3211 10.7647 35.5083 10.7647ZM40.7477 15.1163C41.1281 15.4593 41.706 15.6308 42.4816 15.6308C43.2572 15.6308 43.8352 15.4593 44.2155 15.1163C44.5958 14.7658 44.786 14.1393 44.786 13.2369C44.786 12.3122 44.5958 11.6708 44.2155 11.3129C43.8352 10.9549 43.2572 10.7759 42.4816 10.7759C41.706 10.7759 41.1281 10.9549 40.7477 11.3129C40.3748 11.6634 40.1884 12.3047 40.1884 13.2369C40.1884 14.1393 40.3748 14.7658 40.7477 15.1163ZM42.4816 10.239C43.4586 10.239 44.1857 10.4702 44.663 10.9325C45.1477 11.3875 45.3901 12.1556 45.3901 13.2369C45.3901 14.2885 45.1477 15.0417 44.663 15.4966C44.1857 15.9441 43.4586 16.1678 42.4816 16.1678C41.5121 16.1678 40.785 15.9441 40.3003 15.4966C39.8155 15.0417 39.5731 14.2885 39.5731 13.2369C39.5731 12.1556 39.8155 11.3875 40.3003 10.9325C40.785 10.4702 41.5121 10.239 42.4816 10.239ZM47.4414 8.28135V16H46.8261V8.28135H47.4414ZM53.4898 16V12.1519C53.4898 11.6447 53.3443 11.2868 53.0535 11.078C52.7701 10.8692 52.3077 10.7647 51.6664 10.7647C50.3688 10.7647 49.7013 11.3502 49.664 12.521V16H49.0488V10.4068H49.664V11.4695H49.7535C50.0593 10.6492 50.764 10.239 51.8677 10.239C52.6135 10.239 53.1728 10.3844 53.5457 10.6753C53.926 10.9661 54.1162 11.4583 54.1162 12.1519V16H53.4898ZM61.1552 12.9908V13.4159H56.0989C56.1064 14.2363 56.3003 14.8105 56.6806 15.1386C57.0684 15.4668 57.6389 15.6308 58.3921 15.6308C59.0186 15.6308 59.5108 15.5264 59.8687 15.3176C60.2342 15.1088 60.4542 14.7508 60.5287 14.2437H61.144C60.9725 15.5264 60.0552 16.1678 58.3921 16.1678C57.4226 16.1678 56.6955 15.9441 56.2108 15.4966C55.726 15.0417 55.4837 14.2885 55.4837 13.2369C55.4837 12.1556 55.726 11.3875 56.2108 10.9325C56.6955 10.4702 57.4189 10.239 58.381 10.239C59.3057 10.239 59.9993 10.4627 60.4616 10.9102C60.924 11.3576 61.1552 12.0512 61.1552 12.9908ZM58.381 10.7759C57.6576 10.7759 57.1057 10.9325 56.7254 11.2458C56.345 11.559 56.1399 12.1146 56.1101 12.9125H60.5287C60.5287 12.122 60.3498 11.5702 59.9918 11.2569C59.6338 10.9363 59.0969 10.7759 58.381 10.7759ZM67.0026 16V12.1519C67.0026 11.6447 66.8572 11.2868 66.5664 11.078C66.283 10.8692 65.8206 10.7647 65.1793 10.7647C63.8816 10.7647 63.2142 11.3502 63.1769 12.521V16H62.5616V10.4068H63.1769V11.4695H63.2664C63.5721 10.6492 64.2769 10.239 65.3806 10.239C66.1264 10.239 66.6857 10.3844 67.0586 10.6753C67.4389 10.9661 67.6291 11.4583 67.6291 12.1519V16H67.0026ZM69.2426 10.4068H69.8579V16H69.2426V10.4068ZM69.9026 9.37763H69.2091V8.30373H69.9026V9.37763ZM77.0002 12.9908V13.4159H71.9439C71.9514 14.2363 72.1453 14.8105 72.5256 15.1386C72.9134 15.4668 73.4839 15.6308 74.2371 15.6308C74.8636 15.6308 75.3558 15.5264 75.7137 15.3176C76.0792 15.1088 76.2992 14.7508 76.3737 14.2437H76.989C76.8175 15.5264 75.9002 16.1678 74.2371 16.1678C73.2676 16.1678 72.5405 15.9441 72.0558 15.4966C71.571 15.0417 71.3286 14.2885 71.3286 13.2369C71.3286 12.1556 71.571 11.3875 72.0558 10.9325C72.5405 10.4702 73.2639 10.239 74.2259 10.239C75.1507 10.239 75.8442 10.4627 76.3066 10.9102C76.769 11.3576 77.0002 12.0512 77.0002 12.9908ZM74.2259 10.7759C73.5025 10.7759 72.9507 10.9325 72.5703 11.2458C72.19 11.559 71.9849 12.1146 71.9551 12.9125H76.3737C76.3737 12.122 76.1948 11.5702 75.8368 11.2569C75.4788 10.9363 74.9419 10.7759 74.2259 10.7759ZM79.2568 16H78.4178V14.7471H79.2568V16ZM81.4848 8.28135V16H80.8807V8.28135H81.4848ZM81.6973 13.36L84.7401 10.4068H85.5567L82.8272 12.9908L85.6573 16H84.8631L82.4245 13.36H81.6973ZM86.1282 16V15.6308L90.0994 10.9437H86.3743V10.4068H90.9608V10.7312L86.956 15.4631H91.1286V16H86.1282Z"/>
</mask>
<path d="M26.6668 15.1163C27.0471 15.4593 27.6251 15.6308 28.4007 15.6308C29.1763 15.6308 29.7542 15.4593 30.1346 15.1163C30.5149 14.7658 30.7051 14.1393 30.7051 13.2369C30.7051 12.3122 30.5149 11.6708 30.1346 11.3129C29.7542 10.9549 29.1763 10.7759 28.4007 10.7759C27.6251 10.7759 27.0471 10.9549 26.6668 11.3129C26.2939 11.6634 26.1075 12.3047 26.1075 13.2369C26.1075 14.1393 26.2939 14.7658 26.6668 15.1163ZM28.4007 10.239C29.3776 10.239 30.1047 10.4702 30.582 10.9325C31.0668 11.3875 31.3092 12.1556 31.3092 13.2369C31.3092 14.2885 31.0668 15.0417 30.582 15.4966C30.1047 15.9441 29.3776 16.1678 28.4007 16.1678C27.4312 16.1678 26.7041 15.9441 26.2193 15.4966C25.7346 15.0417 25.4922 14.2885 25.4922 13.2369C25.4922 12.1556 25.7346 11.3875 26.2193 10.9325C26.7041 10.4702 27.4312 10.239 28.4007 10.239ZM35.6984 16.1678C34.5276 16.1678 33.7744 15.7464 33.4388 14.9037H33.3493V18.0136H32.734V10.4068H33.3493V11.5031H33.4388C33.7744 10.6603 34.5276 10.239 35.6984 10.239C36.6157 10.239 37.2869 10.459 37.712 10.899C38.1371 11.339 38.3496 12.1108 38.3496 13.2146C38.3496 14.3034 38.1371 15.0678 37.712 15.5078C37.2869 15.9478 36.6157 16.1678 35.6984 16.1678ZM35.5083 10.7647C34.1062 10.7647 33.3866 11.3651 33.3493 12.5658V13.7292C33.3493 14.1095 33.4089 14.4302 33.5283 14.6912C33.6476 14.9522 33.8117 15.1498 34.0205 15.2841C34.2367 15.4183 34.4642 15.5115 34.7028 15.5637C34.9415 15.6159 35.21 15.642 35.5083 15.642C36.3211 15.642 36.8954 15.4742 37.231 15.1386C37.574 14.8031 37.7456 14.1617 37.7456 13.2146C37.7456 12.26 37.574 11.6149 37.231 11.2793C36.8954 10.9363 36.3211 10.7647 35.5083 10.7647ZM40.7477 15.1163C41.1281 15.4593 41.706 15.6308 42.4816 15.6308C43.2572 15.6308 43.8352 15.4593 44.2155 15.1163C44.5958 14.7658 44.786 14.1393 44.786 13.2369C44.786 12.3122 44.5958 11.6708 44.2155 11.3129C43.8352 10.9549 43.2572 10.7759 42.4816 10.7759C41.706 10.7759 41.1281 10.9549 40.7477 11.3129C40.3748 11.6634 40.1884 12.3047 40.1884 13.2369C40.1884 14.1393 40.3748 14.7658 40.7477 15.1163ZM42.4816 10.239C43.4586 10.239 44.1857 10.4702 44.663 10.9325C45.1477 11.3875 45.3901 12.1556 45.3901 13.2369C45.3901 14.2885 45.1477 15.0417 44.663 15.4966C44.1857 15.9441 43.4586 16.1678 42.4816 16.1678C41.5121 16.1678 40.785 15.9441 40.3003 15.4966C39.8155 15.0417 39.5731 14.2885 39.5731 13.2369C39.5731 12.1556 39.8155 11.3875 40.3003 10.9325C40.785 10.4702 41.5121 10.239 42.4816 10.239ZM47.4414 8.28135V16H46.8261V8.28135H47.4414ZM53.4898 16V12.1519C53.4898 11.6447 53.3443 11.2868 53.0535 11.078C52.7701 10.8692 52.3077 10.7647 51.6664 10.7647C50.3688 10.7647 49.7013 11.3502 49.664 12.521V16H49.0488V10.4068H49.664V11.4695H49.7535C50.0593 10.6492 50.764 10.239 51.8677 10.239C52.6135 10.239 53.1728 10.3844 53.5457 10.6753C53.926 10.9661 54.1162 11.4583 54.1162 12.1519V16H53.4898ZM61.1552 12.9908V13.4159H56.0989C56.1064 14.2363 56.3003 14.8105 56.6806 15.1386C57.0684 15.4668 57.6389 15.6308 58.3921 15.6308C59.0186 15.6308 59.5108 15.5264 59.8687 15.3176C60.2342 15.1088 60.4542 14.7508 60.5287 14.2437H61.144C60.9725 15.5264 60.0552 16.1678 58.3921 16.1678C57.4226 16.1678 56.6955 15.9441 56.2108 15.4966C55.726 15.0417 55.4837 14.2885 55.4837 13.2369C55.4837 12.1556 55.726 11.3875 56.2108 10.9325C56.6955 10.4702 57.4189 10.239 58.381 10.239C59.3057 10.239 59.9993 10.4627 60.4616 10.9102C60.924 11.3576 61.1552 12.0512 61.1552 12.9908ZM58.381 10.7759C57.6576 10.7759 57.1057 10.9325 56.7254 11.2458C56.345 11.559 56.1399 12.1146 56.1101 12.9125H60.5287C60.5287 12.122 60.3498 11.5702 59.9918 11.2569C59.6338 10.9363 59.0969 10.7759 58.381 10.7759ZM67.0026 16V12.1519C67.0026 11.6447 66.8572 11.2868 66.5664 11.078C66.283 10.8692 65.8206 10.7647 65.1793 10.7647C63.8816 10.7647 63.2142 11.3502 63.1769 12.521V16H62.5616V10.4068H63.1769V11.4695H63.2664C63.5721 10.6492 64.2769 10.239 65.3806 10.239C66.1264 10.239 66.6857 10.3844 67.0586 10.6753C67.4389 10.9661 67.6291 11.4583 67.6291 12.1519V16H67.0026ZM69.2426 10.4068H69.8579V16H69.2426V10.4068ZM69.9026 9.37763H69.2091V8.30373H69.9026V9.37763ZM77.0002 12.9908V13.4159H71.9439C71.9514 14.2363 72.1453 14.8105 72.5256 15.1386C72.9134 15.4668 73.4839 15.6308 74.2371 15.6308C74.8636 15.6308 75.3558 15.5264 75.7137 15.3176C76.0792 15.1088 76.2992 14.7508 76.3737 14.2437H76.989C76.8175 15.5264 75.9002 16.1678 74.2371 16.1678C73.2676 16.1678 72.5405 15.9441 72.0558 15.4966C71.571 15.0417 71.3286 14.2885 71.3286 13.2369C71.3286 12.1556 71.571 11.3875 72.0558 10.9325C72.5405 10.4702 73.2639 10.239 74.2259 10.239C75.1507 10.239 75.8442 10.4627 76.3066 10.9102C76.769 11.3576 77.0002 12.0512 77.0002 12.9908ZM74.2259 10.7759C73.5025 10.7759 72.9507 10.9325 72.5703 11.2458C72.19 11.559 71.9849 12.1146 71.9551 12.9125H76.3737C76.3737 12.122 76.1948 11.5702 75.8368 11.2569C75.4788 10.9363 74.9419 10.7759 74.2259 10.7759ZM79.2568 16H78.4178V14.7471H79.2568V16ZM81.4848 8.28135V16H80.8807V8.28135H81.4848ZM81.6973 13.36L84.7401 10.4068H85.5567L82.8272 12.9908L85.6573 16H84.8631L82.4245 13.36H81.6973ZM86.1282 16V15.6308L90.0994 10.9437H86.3743V10.4068H90.9608V10.7312L86.956 15.4631H91.1286V16H86.1282Z" fill="white"/>
<path d="M26.6668 15.1163L26.5 15.2937L26.5038 15.297L26.6668 15.1163ZM30.1346 15.1163L30.2976 15.297L30.2995 15.2953L30.1346 15.1163ZM30.1346 11.3129L30.3014 11.1356L30.1346 11.3129ZM26.6668 11.3129L26.8335 11.4902L26.8336 11.4901L26.6668 11.3129ZM30.582 10.9325L30.4127 11.1074L30.4155 11.11L30.582 10.9325ZM30.582 15.4966L30.7485 15.6742L30.7486 15.6741L30.582 15.4966ZM26.2193 15.4966L26.0527 15.6741L26.0542 15.6755L26.2193 15.4966ZM26.2193 10.9325L26.3859 11.11L26.3873 11.1087L26.2193 10.9325ZM26.6668 15.1163L26.5038 15.297C26.947 15.6968 27.5949 15.8743 28.4007 15.8743V15.6308V15.3874C27.6553 15.3874 27.1473 15.2219 26.8298 14.9355L26.6668 15.1163ZM28.4007 15.6308V15.8743C29.2065 15.8743 29.8544 15.6968 30.2976 15.297L30.1346 15.1163L29.9715 14.9355C29.6541 15.2219 29.1461 15.3874 28.4007 15.3874V15.6308ZM30.1346 15.1163L30.2995 15.2953C30.7565 14.8741 30.9485 14.1598 30.9485 13.2369H30.7051H30.4617C30.4617 14.1188 30.2733 14.6574 29.9696 14.9373L30.1346 15.1163ZM30.7051 13.2369H30.9485C30.9485 12.2931 30.7571 11.5645 30.3014 11.1356L30.1346 11.3129L29.9678 11.4901C30.2728 11.7772 30.4617 12.3313 30.4617 13.2369H30.7051ZM30.1346 11.3129L30.3014 11.1356C29.8582 10.7185 29.2087 10.5325 28.4007 10.5325V10.7759V11.0193C29.1438 11.0193 29.6503 11.1913 29.9678 11.4901L30.1346 11.3129ZM28.4007 10.7759V10.5325C27.5926 10.5325 26.9432 10.7185 26.5 11.1356L26.6668 11.3129L26.8336 11.4901C27.1511 11.1913 27.6575 11.0193 28.4007 11.0193V10.7759ZM26.6668 11.3129L26.5001 11.1355C26.0507 11.5579 25.864 12.2882 25.864 13.2369H26.1075H26.3509C26.3509 12.3213 26.5371 11.7689 26.8335 11.4902L26.6668 11.3129ZM26.1075 13.2369H25.864C25.864 14.1588 26.0519 14.8723 26.5001 15.2936L26.6668 15.1163L26.8335 14.9389C26.5359 14.6592 26.3509 14.1199 26.3509 13.2369H26.1075ZM28.4007 10.239V10.4824C29.3439 10.4824 29.9983 10.7059 30.4127 11.1074L30.582 10.9325L30.7514 10.7577C30.2112 10.2344 29.4114 9.99557 28.4007 9.99557V10.239ZM30.582 10.9325L30.4155 11.11C30.8278 11.497 31.0657 12.1822 31.0657 13.2369H31.3092H31.5526C31.5526 12.129 31.3057 11.2779 30.7486 10.7551L30.582 10.9325ZM31.3092 13.2369H31.0657C31.0657 14.2594 30.829 14.9311 30.4155 15.3191L30.582 15.4966L30.7486 15.6741C31.3046 15.1523 31.5526 14.3175 31.5526 13.2369H31.3092ZM30.582 15.4966L30.4156 15.319C30.0013 15.7074 29.3457 15.9244 28.4007 15.9244V16.1678V16.4112C29.4096 16.4112 30.2082 16.1807 30.7485 15.6742L30.582 15.4966ZM28.4007 16.1678V15.9244C27.4641 15.9244 26.807 15.7078 26.3844 15.3178L26.2193 15.4966L26.0542 15.6755C26.6011 16.1803 27.3983 16.4112 28.4007 16.4112V16.1678ZM26.2193 15.4966L26.3859 15.3191C25.9724 14.9311 25.7356 14.2594 25.7356 13.2369H25.4922H25.2488C25.2488 14.3175 25.4968 15.1523 26.0528 15.6741L26.2193 15.4966ZM25.4922 13.2369H25.7356C25.7356 12.1822 25.9735 11.497 26.3859 11.11L26.2193 10.9325L26.0528 10.7551C25.4956 11.2779 25.2488 12.129 25.2488 13.2369H25.4922ZM26.2193 10.9325L26.3873 11.1087C26.81 10.7055 27.4659 10.4824 28.4007 10.4824V10.239V9.99557C27.3965 9.99557 26.5981 10.2348 26.0513 10.7564L26.2193 10.9325ZM33.4388 14.9037L33.6649 14.8137L33.6038 14.6603H33.4388V14.9037ZM33.3493 14.9037V14.6603H33.1059V14.9037H33.3493ZM33.3493 18.0136V18.257H33.5927V18.0136H33.3493ZM32.734 18.0136H32.4906V18.257H32.734V18.0136ZM32.734 10.4068V10.1634H32.4906V10.4068H32.734ZM33.3493 10.4068H33.5927V10.1634H33.3493V10.4068ZM33.3493 11.5031H33.1059V11.7465H33.3493V11.5031ZM33.4388 11.5031V11.7465H33.6038L33.6649 11.5931L33.4388 11.5031ZM37.712 10.899L37.887 10.7299L37.887 10.7299L37.712 10.899ZM37.712 15.5078L37.887 15.6769L37.887 15.6769L37.712 15.5078ZM33.3493 12.5658L33.1059 12.5582V12.5658H33.3493ZM33.5283 14.6912L33.3069 14.7924L33.3069 14.7924L33.5283 14.6912ZM34.0205 15.2841L33.8888 15.4888L33.8921 15.4909L34.0205 15.2841ZM34.7028 15.5637L34.6508 15.8015L34.6508 15.8015L34.7028 15.5637ZM37.231 15.1386L37.0608 14.9646L37.0589 14.9665L37.231 15.1386ZM37.231 11.2793L37.0569 11.4496L37.0608 11.4533L37.231 11.2793ZM35.6984 16.1678V15.9244C35.1404 15.9244 34.7038 15.8237 34.3742 15.6394C34.049 15.4574 33.8132 15.186 33.6649 14.8137L33.4388 14.9037L33.2126 14.9938C33.4 15.4642 33.7086 15.8248 34.1365 16.0642C34.5601 16.3012 35.0856 16.4112 35.6984 16.4112V16.1678ZM33.4388 14.9037V14.6603H33.3493V14.9037V15.1471H33.4388V14.9037ZM33.3493 14.9037H33.1059V18.0136H33.3493H33.5927V14.9037H33.3493ZM33.3493 18.0136V17.7702H32.734V18.0136V18.257H33.3493V18.0136ZM32.734 18.0136H32.9774V10.4068H32.734H32.4906V18.0136H32.734ZM32.734 10.4068V10.6502H33.3493V10.4068V10.1634H32.734V10.4068ZM33.3493 10.4068H33.1059V11.5031H33.3493H33.5927V10.4068H33.3493ZM33.3493 11.5031V11.7465H33.4388V11.5031V11.2596H33.3493V11.5031ZM33.4388 11.5031L33.6649 11.5931C33.8132 11.2208 34.049 10.9494 34.3742 10.7674C34.7038 10.583 35.1404 10.4824 35.6984 10.4824V10.239V9.99557C35.0856 9.99557 34.5601 10.1056 34.1365 10.3426C33.7086 10.582 33.4 10.9426 33.2126 11.413L33.4388 11.5031ZM35.6984 10.239V10.4824C36.5825 10.4824 37.1763 10.6949 37.5369 11.0681L37.712 10.899L37.887 10.7299C37.3975 10.2231 36.649 9.99557 35.6984 9.99557V10.239ZM37.712 10.899L37.5369 11.0681C37.8942 11.4379 38.1062 12.1279 38.1062 13.2146H38.3496H38.593C38.593 12.0938 38.38 11.2401 37.887 10.7299L37.712 10.899ZM38.3496 13.2146H38.1062C38.1062 14.2852 37.8946 14.9684 37.5369 15.3387L37.712 15.5078L37.887 15.6769C38.3795 15.1671 38.593 14.3216 38.593 13.2146H38.3496ZM37.712 15.5078L37.5369 15.3387C37.1763 15.7119 36.5825 15.9244 35.6984 15.9244V16.1678V16.4112C36.649 16.4112 37.3975 16.1837 37.887 15.6769L37.712 15.5078ZM35.5083 10.7647V10.5213C34.7775 10.5213 34.1818 10.6771 33.7611 11.0281C33.3336 11.3847 33.1261 11.9093 33.106 12.5582L33.3493 12.5658L33.5926 12.5733C33.6097 12.0216 33.7807 11.6457 34.0729 11.4019C34.3718 11.1525 34.837 11.0082 35.5083 11.0082V10.7647ZM33.3493 12.5658H33.1059V13.7292H33.3493H33.5927V12.5658H33.3493ZM33.3493 13.7292H33.1059C33.1059 14.1336 33.1691 14.4911 33.3069 14.7924L33.5283 14.6912L33.7496 14.59C33.6487 14.3693 33.5927 14.0854 33.5927 13.7292H33.3493ZM33.5283 14.6912L33.3069 14.7924C33.4425 15.089 33.635 15.3256 33.8888 15.4888L34.0205 15.2841L34.1521 15.0793C33.9883 14.974 33.8527 14.8154 33.7496 14.59L33.5283 14.6912ZM34.0205 15.2841L33.8921 15.4909C34.1309 15.6391 34.384 15.7432 34.6508 15.8015L34.7028 15.5637L34.7549 15.3259C34.5444 15.2799 34.3426 15.1975 34.1488 15.0773L34.0205 15.2841ZM34.7028 15.5637L34.6508 15.8015C34.9098 15.8582 35.1962 15.8854 35.5083 15.8854V15.642V15.3986C35.2238 15.3986 34.9732 15.3737 34.7549 15.3259L34.7028 15.5637ZM35.5083 15.642V15.8854C36.3427 15.8854 36.9985 15.7154 37.4031 15.3108L37.231 15.1386L37.0589 14.9665C36.7923 15.2331 36.2996 15.3986 35.5083 15.3986V15.642ZM37.231 15.1386L37.4012 15.3126C37.8198 14.9031 37.989 14.1713 37.989 13.2146H37.7456H37.5021C37.5021 14.1521 37.3283 14.703 37.0608 14.9646L37.231 15.1386ZM37.7456 13.2146H37.989C37.989 12.2511 37.82 11.5151 37.4012 11.1053L37.231 11.2793L37.0608 11.4533C37.328 11.7148 37.5021 12.2689 37.5021 13.2146H37.7456ZM37.231 11.2793L37.405 11.1091C37.0005 10.6956 36.3438 10.5213 35.5083 10.5213V10.7647V11.0082C36.2985 11.0082 36.7903 11.1769 37.057 11.4495L37.231 11.2793ZM40.7477 15.1163L40.581 15.2937L40.5847 15.297L40.7477 15.1163ZM44.2155 15.1163L44.3785 15.297L44.3805 15.2953L44.2155 15.1163ZM44.2155 11.3129L44.3823 11.1356L44.2155 11.3129ZM40.7477 11.3129L40.9144 11.4902L40.9145 11.4901L40.7477 11.3129ZM44.663 10.9325L44.4936 11.1074L44.4964 11.11L44.663 10.9325ZM44.663 15.4966L44.8294 15.6742L44.8295 15.6741L44.663 15.4966ZM40.3003 15.4966L40.1337 15.6741L40.1352 15.6755L40.3003 15.4966ZM40.3003 10.9325L40.4668 11.11L40.4683 11.1087L40.3003 10.9325ZM40.7477 15.1163L40.5847 15.297C41.0279 15.6968 41.6758 15.8743 42.4816 15.8743V15.6308V15.3874C41.7362 15.3874 41.2282 15.2219 40.9107 14.9355L40.7477 15.1163ZM42.4816 15.6308V15.8743C43.2874 15.8743 43.9353 15.6968 44.3785 15.297L44.2155 15.1163L44.0525 14.9355C43.735 15.2219 43.227 15.3874 42.4816 15.3874V15.6308ZM44.2155 15.1163L44.3805 15.2953C44.8374 14.8741 45.0294 14.1598 45.0294 13.2369H44.786H44.5426C44.5426 14.1188 44.3543 14.6574 44.0506 14.9373L44.2155 15.1163ZM44.786 13.2369H45.0294C45.0294 12.2931 44.838 11.5645 44.3823 11.1356L44.2155 11.3129L44.0487 11.4901C44.3537 11.7772 44.5426 12.3313 44.5426 13.2369H44.786ZM44.2155 11.3129L44.3823 11.1356C43.9391 10.7185 43.2896 10.5325 42.4816 10.5325V10.7759V11.0193C43.2248 11.0193 43.7312 11.1913 44.0487 11.4901L44.2155 11.3129ZM42.4816 10.7759V10.5325C41.6736 10.5325 41.0241 10.7185 40.5809 11.1356L40.7477 11.3129L40.9145 11.4901C41.232 11.1913 41.7385 11.0193 42.4816 11.0193V10.7759ZM40.7477 11.3129L40.581 11.1355C40.1317 11.5579 39.945 12.2882 39.945 13.2369H40.1884H40.4318C40.4318 12.3213 40.618 11.7689 40.9144 11.4902L40.7477 11.3129ZM40.1884 13.2369H39.945C39.945 14.1588 40.1328 14.8723 40.581 15.2936L40.7477 15.1163L40.9144 14.9389C40.6168 14.6592 40.4318 14.1199 40.4318 13.2369H40.1884ZM42.4816 10.239V10.4824C43.4248 10.4824 44.0792 10.7059 44.4936 11.1074L44.663 10.9325L44.8323 10.7577C44.2921 10.2344 43.4923 9.99557 42.4816 9.99557V10.239ZM44.663 10.9325L44.4964 11.11C44.9088 11.497 45.1467 12.1822 45.1467 13.2369H45.3901H45.6335C45.6335 12.129 45.3867 11.2779 44.8295 10.7551L44.663 10.9325ZM45.3901 13.2369H45.1467C45.1467 14.2594 44.9099 14.9311 44.4964 15.3191L44.663 15.4966L44.8295 15.6741C45.3855 15.1523 45.6335 14.3175 45.6335 13.2369H45.3901ZM44.663 15.4966L44.4965 15.319C44.0822 15.7074 43.4266 15.9244 42.4816 15.9244V16.1678V16.4112C43.4905 16.4112 44.2891 16.1807 44.8294 15.6742L44.663 15.4966ZM42.4816 16.1678V15.9244C41.545 15.9244 40.888 15.7078 40.4654 15.3178L40.3003 15.4966L40.1352 15.6755C40.682 16.1803 41.4792 16.4112 42.4816 16.4112V16.1678ZM40.3003 15.4966L40.4668 15.3191C40.0533 14.9311 39.8165 14.2594 39.8165 13.2369H39.5731H39.3297C39.3297 14.3175 39.5777 15.1523 40.1337 15.6741L40.3003 15.4966ZM39.5731 13.2369H39.8165C39.8165 12.1822 40.0544 11.497 40.4668 11.11L40.3003 10.9325L40.1337 10.7551C39.5766 11.2779 39.3297 12.129 39.3297 13.2369H39.5731ZM40.3003 10.9325L40.4683 11.1087C40.891 10.7055 41.5468 10.4824 42.4816 10.4824V10.239V9.99557C41.4774 9.99557 40.679 10.2348 40.1323 10.7564L40.3003 10.9325ZM47.4414 8.28135H47.6848V8.03795H47.4414V8.28135ZM47.4414 16V16.2434H47.6848V16H47.4414ZM46.8261 16H46.5827V16.2434H46.8261V16ZM46.8261 8.28135V8.03795H46.5827V8.28135H46.8261ZM47.4414 8.28135H47.198V16H47.4414H47.6848V8.28135H47.4414ZM47.4414 16V15.7566H46.8261V16V16.2434H47.4414V16ZM46.8261 16H47.0696V8.28135H46.8261H46.5827V16H46.8261ZM46.8261 8.28135V8.52476H47.4414V8.28135V8.03795H46.8261V8.28135ZM53.4898 16H53.2464V16.2434H53.4898V16ZM53.0535 11.078L52.9091 11.2739L52.9115 11.2757L53.0535 11.078ZM49.664 12.521L49.4206 12.5133V12.521H49.664ZM49.664 16V16.2434H49.9074V16H49.664ZM49.0488 16H48.8053V16.2434H49.0488V16ZM49.0488 10.4068V10.1634H48.8053V10.4068H49.0488ZM49.664 10.4068H49.9074V10.1634H49.664V10.4068ZM49.664 11.4695H49.4206V11.7129H49.664V11.4695ZM49.7535 11.4695V11.7129H49.9225L49.9816 11.5545L49.7535 11.4695ZM53.5457 10.6753L53.396 10.8672L53.3978 10.8686L53.5457 10.6753ZM54.1162 16V16.2434H54.3596V16H54.1162ZM53.4898 16H53.7332V12.1519H53.4898H53.2464V16H53.4898ZM53.4898 12.1519H53.7332C53.7332 11.6012 53.5738 11.1519 53.1955 10.8802L53.0535 11.078L52.9115 11.2757C53.1148 11.4217 53.2464 11.6883 53.2464 12.1519H53.4898ZM53.0535 11.078L53.1979 10.882C52.8503 10.6259 52.3224 10.5213 51.6664 10.5213V10.7647V11.0082C52.2931 11.0082 52.6899 11.1124 52.9091 11.2739L53.0535 11.078ZM51.6664 10.7647V10.5213C50.9852 10.5213 50.4268 10.6746 50.0321 11.0208C49.6329 11.3709 49.4408 11.883 49.4207 12.5133L49.664 12.521L49.9073 12.5288C49.9245 11.9881 50.0848 11.6221 50.3531 11.3868C50.6258 11.1476 51.0499 11.0082 51.6664 11.0082V10.7647ZM49.664 12.521H49.4206V16H49.664H49.9074V12.521H49.664ZM49.664 16V15.7566H49.0488V16V16.2434H49.664V16ZM49.0488 16H49.2922V10.4068H49.0488H48.8053V16H49.0488ZM49.0488 10.4068V10.6502H49.664V10.4068V10.1634H49.0488V10.4068ZM49.664 10.4068H49.4206V11.4695H49.664H49.9074V10.4068H49.664ZM49.664 11.4695V11.7129H49.7535V11.4695V11.2261H49.664V11.4695ZM49.7535 11.4695L49.9816 11.5545C50.1164 11.1929 50.3338 10.9316 50.6338 10.757C50.9381 10.5799 51.3442 10.4824 51.8677 10.4824V10.239V9.99557C51.2875 9.99557 50.7894 10.1032 50.3889 10.3362C49.9842 10.5718 49.6964 10.9257 49.5254 11.3845L49.7535 11.4695ZM51.8677 10.239V10.4824C52.5885 10.4824 53.0843 10.6241 53.396 10.8672L53.5457 10.6753L53.6954 10.4833C53.2613 10.1447 52.6384 9.99557 51.8677 9.99557V10.239ZM53.5457 10.6753L53.3978 10.8686C53.6944 11.0954 53.8728 11.4985 53.8728 12.1519H54.1162H54.3596C54.3596 11.4181 54.1577 10.8368 53.6936 10.4819L53.5457 10.6753ZM54.1162 12.1519H53.8728V16H54.1162H54.3596V12.1519H54.1162ZM54.1162 16V15.7566H53.4898V16V16.2434H54.1162V16ZM61.1552 13.4159V13.6593H61.3986V13.4159H61.1552ZM56.0989 13.4159V13.1725H55.8533L55.8555 13.4181L56.0989 13.4159ZM56.6806 15.1386L56.5216 15.323L56.5234 15.3245L56.6806 15.1386ZM59.8687 15.3176L59.748 15.1063L59.7461 15.1074L59.8687 15.3176ZM60.5287 14.2437V14.0003H60.3185L60.2879 14.2083L60.5287 14.2437ZM61.144 14.2437L61.3853 14.276L61.4221 14.0003H61.144V14.2437ZM56.2108 15.4966L56.0442 15.6741L56.0457 15.6755L56.2108 15.4966ZM56.2108 10.9325L56.3774 11.11L56.3788 11.1087L56.2108 10.9325ZM60.4616 10.9102L60.2924 11.0851L60.4616 10.9102ZM56.7254 11.2458L56.5706 11.0579L56.5706 11.0579L56.7254 11.2458ZM56.1101 12.9125L55.8669 12.9034L55.8574 13.156H56.1101V12.9125ZM60.5287 12.9125V13.156H60.7722V12.9125H60.5287ZM59.9918 11.2569L59.8294 11.4383L59.8315 11.4401L59.9918 11.2569ZM61.1552 12.9908H60.9118V13.4159H61.1552H61.3986V12.9908H61.1552ZM61.1552 13.4159V13.1725H56.0989V13.4159V13.6593H61.1552V13.4159ZM56.0989 13.4159L55.8555 13.4181C55.8632 14.2653 56.0626 14.9269 56.5216 15.3229L56.6806 15.1386L56.8396 14.9543C56.538 14.6941 56.3495 14.2072 56.3423 13.4137L56.0989 13.4159ZM56.6806 15.1386L56.5234 15.3245C56.9721 15.7041 57.6083 15.8743 58.3921 15.8743V15.6308V15.3874C57.6696 15.3874 57.1648 15.2295 56.8378 14.9528L56.6806 15.1386ZM58.3921 15.6308V15.8743C59.0413 15.8743 59.5819 15.7668 59.9914 15.5279L59.8687 15.3176L59.7461 15.1074C59.4397 15.2861 58.9959 15.3874 58.3921 15.3874V15.6308ZM59.8687 15.3176L59.9895 15.529C60.4341 15.2749 60.6867 14.8423 60.7696 14.2791L60.5287 14.2437L60.2879 14.2083C60.2216 14.6593 60.0343 14.9427 59.748 15.1063L59.8687 15.3176ZM60.5287 14.2437V14.4871H61.144V14.2437V14.0003H60.5287V14.2437ZM61.144 14.2437L60.9027 14.2115C60.8245 14.7969 60.5818 15.2119 60.1879 15.4873C59.7856 15.7686 59.1967 15.9244 58.3921 15.9244V16.1678V16.4112C59.2506 16.4112 59.9519 16.2463 60.4669 15.8863C60.9903 15.5203 61.292 14.9733 61.3853 14.276L61.144 14.2437ZM58.3921 16.1678V15.9244C57.4555 15.9244 56.7985 15.7078 56.3759 15.3178L56.2108 15.4966L56.0457 15.6755C56.5926 16.1803 57.3897 16.4112 58.3921 16.4112V16.1678ZM56.2108 15.4966L56.3774 15.3191C55.9639 14.9311 55.7271 14.2594 55.7271 13.2369H55.4837H55.2403C55.2403 14.3175 55.4882 15.1523 56.0442 15.6741L56.2108 15.4966ZM55.4837 13.2369H55.7271C55.7271 12.1822 55.965 11.497 56.3774 11.11L56.2108 10.9325L56.0442 10.7551C55.4871 11.2779 55.2403 12.129 55.2403 13.2369H55.4837ZM56.2108 10.9325L56.3788 11.1087C56.8018 10.7052 57.4543 10.4824 58.381 10.4824V10.239V9.99557C57.3836 9.99557 56.5893 10.2351 56.0428 10.7564L56.2108 10.9325ZM58.381 10.239V10.4824C59.2701 10.4824 59.892 10.6976 60.2924 11.0851L60.4616 10.9102L60.6309 10.7353C60.1065 10.2278 59.3413 9.99557 58.381 9.99557V10.239ZM60.4616 10.9102L60.2924 11.0851C60.6892 11.4691 60.9118 12.0867 60.9118 12.9908H61.1552H61.3986C61.3986 12.0157 61.1588 11.2461 60.6309 10.7353L60.4616 10.9102ZM58.381 10.7759V10.5325C57.6267 10.5325 57.0109 10.6953 56.5706 11.0579L56.7254 11.2458L56.8801 11.4337C57.2005 11.1698 57.6884 11.0193 58.381 11.0193V10.7759ZM56.7254 11.2458L56.5706 11.0579C56.111 11.4364 55.8977 12.078 55.8669 12.9034L56.1101 12.9125L56.3533 12.9216C56.3821 12.1511 56.5791 11.6816 56.8801 11.4337L56.7254 11.2458ZM56.1101 12.9125V13.156H60.5287V12.9125V12.6691H56.1101V12.9125ZM60.5287 12.9125H60.7722C60.7722 12.0968 60.5892 11.4563 60.1521 11.0738L59.9918 11.2569L59.8315 11.4401C60.1103 11.6841 60.2853 12.1473 60.2853 12.9125H60.5287ZM59.9918 11.2569L60.1542 11.0756C59.7341 10.6993 59.1282 10.5325 58.381 10.5325V10.7759V11.0193C59.0656 11.0193 59.5336 11.1732 59.8294 11.4382L59.9918 11.2569ZM67.0026 16H66.7592V16.2434H67.0026V16ZM66.5664 11.078L66.422 11.2739L66.4244 11.2757L66.5664 11.078ZM63.1769 12.521L62.9335 12.5133V12.521H63.1769ZM63.1769 16V16.2434H63.4203V16H63.1769ZM62.5616 16H62.3182V16.2434H62.5616V16ZM62.5616 10.4068V10.1634H62.3182V10.4068H62.5616ZM63.1769 10.4068H63.4203V10.1634H63.1769V10.4068ZM63.1769 11.4695H62.9335V11.7129H63.1769V11.4695ZM63.2664 11.4695V11.7129H63.4354L63.4945 11.5545L63.2664 11.4695ZM67.0586 10.6753L66.9089 10.8672L66.9107 10.8686L67.0586 10.6753ZM67.6291 16V16.2434H67.8725V16H67.6291ZM67.0026 16H67.2461V12.1519H67.0026H66.7592V16H67.0026ZM67.0026 12.1519H67.2461C67.2461 11.6012 67.0867 11.1519 66.7083 10.8802L66.5664 11.078L66.4244 11.2757C66.6277 11.4217 66.7592 11.6883 66.7592 12.1519H67.0026ZM66.5664 11.078L66.7108 10.882C66.3631 10.6259 65.8353 10.5213 65.1793 10.5213V10.7647V11.0082C65.8059 11.0082 66.2028 11.1124 66.422 11.2739L66.5664 11.078ZM65.1793 10.7647V10.5213C64.4981 10.5213 63.9397 10.6746 63.5449 11.0208C63.1458 11.3709 62.9537 11.883 62.9336 12.5133L63.1769 12.521L63.4202 12.5288C63.4374 11.9881 63.5977 11.6221 63.8659 11.3868C64.1386 11.1476 64.5628 11.0082 65.1793 11.0082V10.7647ZM63.1769 12.521H62.9335V16H63.1769H63.4203V12.521H63.1769ZM63.1769 16V15.7566H62.5616V16V16.2434H63.1769V16ZM62.5616 16H62.805V10.4068H62.5616H62.3182V16H62.5616ZM62.5616 10.4068V10.6502H63.1769V10.4068V10.1634H62.5616V10.4068ZM63.1769 10.4068H62.9335V11.4695H63.1769H63.4203V10.4068H63.1769ZM63.1769 11.4695V11.7129H63.2664V11.4695V11.2261H63.1769V11.4695ZM63.2664 11.4695L63.4945 11.5545C63.6292 11.1929 63.8467 10.9316 64.1467 10.757C64.451 10.5799 64.8571 10.4824 65.3806 10.4824V10.239V9.99557C64.8004 9.99557 64.3022 10.1032 63.9018 10.3362C63.4971 10.5718 63.2093 10.9257 63.0383 11.3845L63.2664 11.4695ZM65.3806 10.239V10.4824C66.1014 10.4824 66.5972 10.6241 66.9089 10.8672L67.0586 10.6753L67.2083 10.4833C66.7742 10.1447 66.1513 9.99557 65.3806 9.99557V10.239ZM67.0586 10.6753L66.9107 10.8686C67.2073 11.0954 67.3857 11.4985 67.3857 12.1519H67.6291H67.8725C67.8725 11.4181 67.6706 10.8368 67.2064 10.4819L67.0586 10.6753ZM67.6291 12.1519H67.3857V16H67.6291H67.8725V12.1519H67.6291ZM67.6291 16V15.7566H67.0026V16V16.2434H67.6291V16ZM69.2426 10.4068V10.1634H68.9992V10.4068H69.2426ZM69.8579 10.4068H70.1013V10.1634H69.8579V10.4068ZM69.8579 16V16.2434H70.1013V16H69.8579ZM69.2426 16H68.9992V16.2434H69.2426V16ZM69.9026 9.37763V9.62104H70.146V9.37763H69.9026ZM69.2091 9.37763H68.9657V9.62104H69.2091V9.37763ZM69.2091 8.30373V8.06032H68.9657V8.30373H69.2091ZM69.9026 8.30373H70.146V8.06032H69.9026V8.30373ZM69.2426 10.4068V10.6502H69.8579V10.4068V10.1634H69.2426V10.4068ZM69.8579 10.4068H69.6145V16H69.8579H70.1013V10.4068H69.8579ZM69.8579 16V15.7566H69.2426V16V16.2434H69.8579V16ZM69.2426 16H69.486V10.4068H69.2426H68.9992V16H69.2426ZM69.9026 9.37763V9.13422H69.2091V9.37763V9.62104H69.9026V9.37763ZM69.2091 9.37763H69.4525V8.30373H69.2091H68.9657V9.37763H69.2091ZM69.2091 8.30373V8.54714H69.9026V8.30373V8.06032H69.2091V8.30373ZM69.9026 8.30373H69.6592V9.37763H69.9026H70.146V8.30373H69.9026ZM77.0002 13.4159V13.6593H77.2436V13.4159H77.0002ZM71.9439 13.4159V13.1725H71.6983L71.7005 13.4181L71.9439 13.4159ZM72.5256 15.1386L72.3666 15.323L72.3684 15.3245L72.5256 15.1386ZM75.7137 15.3176L75.593 15.1063L75.5911 15.1074L75.7137 15.3176ZM76.3737 14.2437V14.0003H76.1635L76.1329 14.2083L76.3737 14.2437ZM76.989 14.2437L77.2302 14.276L77.2671 14.0003H76.989V14.2437ZM72.0558 15.4966L71.8892 15.6741L71.8907 15.6755L72.0558 15.4966ZM72.0558 10.9325L72.2223 11.11L72.2238 11.1087L72.0558 10.9325ZM76.3066 10.9102L76.1373 11.0851L76.3066 10.9102ZM72.5703 11.2458L72.4156 11.0579L72.4156 11.0579L72.5703 11.2458ZM71.9551 12.9125L71.7119 12.9034L71.7024 13.156H71.9551V12.9125ZM76.3737 12.9125V13.156H76.6171V12.9125H76.3737ZM75.8368 11.2569L75.6744 11.4383L75.6765 11.4401L75.8368 11.2569ZM77.0002 12.9908H76.7568V13.4159H77.0002H77.2436V12.9908H77.0002ZM77.0002 13.4159V13.1725H71.9439V13.4159V13.6593H77.0002V13.4159ZM71.9439 13.4159L71.7005 13.4181C71.7082 14.2653 71.9076 14.9269 72.3666 15.3229L72.5256 15.1386L72.6846 14.9543C72.3829 14.6941 72.1945 14.2072 72.1873 13.4137L71.9439 13.4159ZM72.5256 15.1386L72.3684 15.3245C72.817 15.7041 73.4533 15.8743 74.2371 15.8743V15.6308V15.3874C73.5145 15.3874 73.0097 15.2295 72.6828 14.9528L72.5256 15.1386ZM74.2371 15.6308V15.8743C74.8863 15.8743 75.4268 15.7668 75.8364 15.5279L75.7137 15.3176L75.5911 15.1074C75.2847 15.2861 74.8408 15.3874 74.2371 15.3874V15.6308ZM75.7137 15.3176L75.8345 15.529C76.2791 15.2749 76.5317 14.8423 76.6146 14.2791L76.3737 14.2437L76.1329 14.2083C76.0666 14.6593 75.8793 14.9427 75.593 15.1063L75.7137 15.3176ZM76.3737 14.2437V14.4871H76.989V14.2437V14.0003H76.3737V14.2437ZM76.989 14.2437L76.7477 14.2115C76.6694 14.7969 76.4268 15.2119 76.0329 15.4873C75.6306 15.7686 75.0417 15.9244 74.2371 15.9244V16.1678V16.4112C75.0956 16.4112 75.7969 16.2463 76.3119 15.8863C76.8352 15.5203 77.137 14.9733 77.2302 14.276L76.989 14.2437ZM74.2371 16.1678V15.9244C73.3005 15.9244 72.6435 15.7078 72.2209 15.3178L72.0558 15.4966L71.8907 15.6755C72.4376 16.1803 73.2347 16.4112 74.2371 16.4112V16.1678ZM72.0558 15.4966L72.2223 15.3191C71.8088 14.9311 71.5721 14.2594 71.5721 13.2369H71.3286H71.0852C71.0852 14.3175 71.3332 15.1523 71.8892 15.6741L72.0558 15.4966ZM71.3286 13.2369H71.5721C71.5721 12.1822 71.81 11.497 72.2223 11.11L72.0558 10.9325L71.8892 10.7551C71.3321 11.2779 71.0852 12.129 71.0852 13.2369H71.3286ZM72.0558 10.9325L72.2238 11.1087C72.6468 10.7052 73.2992 10.4824 74.2259 10.4824V10.239V9.99557C73.2286 9.99557 72.4343 10.2351 71.8878 10.7564L72.0558 10.9325ZM74.2259 10.239V10.4824C75.1151 10.4824 75.737 10.6976 76.1373 11.0851L76.3066 10.9102L76.4759 10.7353C75.9515 10.2278 75.1862 9.99557 74.2259 9.99557V10.239ZM76.3066 10.9102L76.1373 11.0851C76.5342 11.4691 76.7568 12.0867 76.7568 12.9908H77.0002H77.2436C77.2436 12.0157 77.0038 11.2461 76.4759 10.7353L76.3066 10.9102ZM74.2259 10.7759V10.5325C73.4717 10.5325 72.8559 10.6953 72.4156 11.0579L72.5703 11.2458L72.7251 11.4337C73.0455 11.1698 73.5334 11.0193 74.2259 11.0193V10.7759ZM72.5703 11.2458L72.4156 11.0579C71.9559 11.4364 71.7427 12.078 71.7119 12.9034L71.9551 12.9125L72.1983 12.9216C72.2271 12.1511 72.4241 11.6816 72.7251 11.4337L72.5703 11.2458ZM71.9551 12.9125V13.156H76.3737V12.9125V12.6691H71.9551V12.9125ZM76.3737 12.9125H76.6171C76.6171 12.0968 76.4342 11.4563 75.9971 11.0738L75.8368 11.2569L75.6765 11.4401C75.9553 11.6841 76.1303 12.1473 76.1303 12.9125H76.3737ZM75.8368 11.2569L75.9992 11.0756C75.5791 10.6993 74.9732 10.5325 74.2259 10.5325V10.7759V11.0193C74.9106 11.0193 75.3786 11.1732 75.6744 11.4382L75.8368 11.2569ZM79.2568 16V16.2434H79.5002V16H79.2568ZM78.4178 16H78.1744V16.2434H78.4178V16ZM78.4178 14.7471V14.5037H78.1744V14.7471H78.4178ZM79.2568 14.7471H79.5002V14.5037H79.2568V14.7471ZM79.2568 16V15.7566H78.4178V16V16.2434H79.2568V16ZM78.4178 16H78.6612V14.7471H78.4178H78.1744V16H78.4178ZM78.4178 14.7471V14.9905H79.2568V14.7471V14.5037H78.4178V14.7471ZM79.2568 14.7471H79.0134V16H79.2568H79.5002V14.7471H79.2568ZM81.4848 8.28135H81.7282V8.03795H81.4848V8.28135ZM81.4848 16V16.2434H81.7282V16H81.4848ZM80.8807 16H80.6373V16.2434H80.8807V16ZM80.8807 8.28135V8.03795H80.6373V8.28135H80.8807ZM81.6973 13.36L81.5278 13.1853L81.0971 13.6034H81.6973V13.36ZM84.7401 10.4068V10.1634H84.6414L84.5705 10.2321L84.7401 10.4068ZM85.5567 10.4068L85.724 10.5835L86.1678 10.1634H85.5567V10.4068ZM82.8272 12.9908L82.6598 12.8141L82.4836 12.9809L82.6499 13.1576L82.8272 12.9908ZM85.6573 16V16.2434H86.2204L85.8347 15.8332L85.6573 16ZM84.8631 16L84.6843 16.1652L84.7566 16.2434H84.8631V16ZM82.4245 13.36L82.6033 13.1948L82.531 13.1166H82.4245V13.36ZM81.4848 8.28135H81.2414V16H81.4848H81.7282V8.28135H81.4848ZM81.4848 16V15.7566H80.8807V16V16.2434H81.4848V16ZM80.8807 16H81.1241V8.28135H80.8807H80.6373V16H80.8807ZM80.8807 8.28135V8.52476H81.4848V8.28135V8.03795H80.8807V8.28135ZM81.6973 13.36L81.8669 13.5347L84.9096 10.5814L84.7401 10.4068L84.5705 10.2321L81.5278 13.1853L81.6973 13.36ZM84.7401 10.4068V10.6502H85.5567V10.4068V10.1634H84.7401V10.4068ZM85.5567 10.4068L85.3893 10.23L82.6598 12.8141L82.8272 12.9908L82.9945 13.1676L85.724 10.5835L85.5567 10.4068ZM82.8272 12.9908L82.6499 13.1576L85.48 16.1668L85.6573 16L85.8347 15.8332L83.0045 12.8241L82.8272 12.9908ZM85.6573 16V15.7566H84.8631V16V16.2434H85.6573V16ZM84.8631 16L85.0419 15.8348L82.6033 13.1948L82.4245 13.36L82.2457 13.5252L84.6843 16.1652L84.8631 16ZM82.4245 13.36V13.1166H81.6973V13.36V13.6034H82.4245V13.36ZM86.1282 16H85.8848V16.2434H86.1282V16ZM86.1282 15.6308L85.9425 15.4735L85.8848 15.5416V15.6308H86.1282ZM90.0994 10.9437L90.2851 11.1011L90.6247 10.7003H90.0994V10.9437ZM86.3743 10.9437H86.1309V11.1871H86.3743V10.9437ZM86.3743 10.4068V10.1634H86.1309V10.4068H86.3743ZM90.9608 10.4068H91.2042V10.1634H90.9608V10.4068ZM90.9608 10.7312L91.1466 10.8884L91.2042 10.8204V10.7312H90.9608ZM86.956 15.4631L86.7702 15.3058L86.4311 15.7065H86.956V15.4631ZM91.1286 15.4631H91.372V15.2196H91.1286V15.4631ZM91.1286 16V16.2434H91.372V16H91.1286ZM86.1282 16H86.3716V15.6308H86.1282H85.8848V16H86.1282ZM86.1282 15.6308L86.3139 15.7882L90.2851 11.1011L90.0994 10.9437L89.9137 10.7864L85.9425 15.4735L86.1282 15.6308ZM90.0994 10.9437V10.7003H86.3743V10.9437V11.1871H90.0994V10.9437ZM86.3743 10.9437H86.6177V10.4068H86.3743H86.1309V10.9437H86.3743ZM86.3743 10.4068V10.6502H90.9608V10.4068V10.1634H86.3743V10.4068ZM90.9608 10.4068H90.7174V10.7312H90.9608H91.2042V10.4068H90.9608ZM90.9608 10.7312L90.775 10.5739L86.7702 15.3058L86.956 15.4631L87.1418 15.6203L91.1466 10.8884L90.9608 10.7312ZM86.956 15.4631V15.7065H91.1286V15.4631V15.2196H86.956V15.4631ZM91.1286 15.4631H90.8852V16H91.1286H91.372V15.4631H91.1286ZM91.1286 16V15.7566H86.1282V16V16.2434H91.1286V16Z" fill="white" mask="url(#path-1-outside-1_2302_42729)"/>
<path d="M10.7671 0.0328117C10.7483 0.0468742 10.7343 0.332812 10.7343 0.660937C10.7343 1.35937 10.7624 1.32187 10.2186 1.40156C10.0264 1.43437 9.61395 1.52344 9.30457 1.60312C6.71239 2.27344 4.46707 3.90469 2.95301 6.21094C2.62489 6.71719 2.0577 7.87969 1.85145 8.48437C1.65926 9.04687 1.44364 9.91406 1.34989 10.5C1.25614 11.1094 1.2702 13.0687 1.37332 13.6641C1.69207 15.4734 2.3577 17.0391 3.42176 18.4594C4.09676 19.3594 5.14676 20.3719 5.8452 20.7937C6.06082 20.9203 6.15926 20.9531 6.36082 20.9531C7.11082 20.9531 7.55614 20.1937 7.20457 19.5187C7.16239 19.4391 6.89989 19.1906 6.62332 18.975C4.67801 17.4375 3.50145 15.3281 3.23895 12.8812C2.84051 9.24844 4.86551 5.65312 8.21239 4.05469C8.82645 3.76406 9.56239 3.51094 10.1436 3.38906C10.7014 3.27656 10.7061 3.28125 10.7343 3.90469C10.7483 4.17656 10.7718 4.41562 10.7905 4.43437C10.8093 4.45312 11.1374 4.28906 11.5171 4.06875C14.7139 2.23594 14.6905 2.25 14.6014 2.16094C14.5733 2.1375 14.1421 1.87969 13.6405 1.58906C13.1389 1.30312 12.3093 0.824999 11.803 0.534374C11.2968 0.239062 10.8608 -8.32602e-07 10.8374 -8.32602e-07C10.8139 -8.32602e-07 10.7811 0.0140617 10.7671 0.0328117Z" fill="#CBFD02"/>
<path d="M17.193 3.14062C16.8274 3.33281 16.5977 3.80156 16.6821 4.17187C16.7524 4.47656 16.8742 4.63593 17.2633 4.93124C19.5883 6.69843 20.9196 9.48281 20.7977 12.3281C20.6992 14.6109 19.8227 16.5984 18.2102 18.2109C17.3664 19.0594 16.5508 19.6172 15.4774 20.0859C14.9477 20.3203 14.0336 20.6016 13.6446 20.6531C13.293 20.7 13.2649 20.6578 13.2649 20.1141C13.2649 19.5891 13.2321 19.5094 13.0727 19.5937C12.5992 19.8469 9.51956 21.6422 9.44456 21.7078C9.38831 21.7641 9.36956 21.8109 9.39769 21.8391C9.53831 21.9703 13.143 24.0047 13.1992 23.9812C13.2508 23.9625 13.2649 23.8312 13.2649 23.3484C13.2649 22.65 13.2508 22.6734 13.6867 22.6172C14.1133 22.5609 15.3227 22.2375 15.7961 22.0547C17.3383 21.45 18.5664 20.6297 19.7383 19.425C21.3508 17.7609 22.368 15.6187 22.668 13.2656C22.7617 12.5016 22.7383 11.0156 22.6164 10.3125C22.2602 8.23124 21.3789 6.38437 19.9774 4.79999C19.4196 4.17187 18.3555 3.26718 17.9852 3.10312C17.7883 3.01874 17.3946 3.03749 17.193 3.14062Z" fill="#CBFD02"/>
<path d="M8 17L9.526 7.34H13.278C14.5847 7.34 15.5413 7.578 16.148 8.054C16.7547 8.52067 17.058 9.3 17.058 10.392C17.058 10.9147 16.9833 11.4187 16.834 11.904C16.6847 12.38 16.456 12.828 16.148 13.248C15.8493 13.6587 15.434 13.99 14.902 14.242C14.3793 14.4847 13.7727 14.606 13.082 14.606H10.31L9.932 17H8ZM13.208 8.978H11.192L10.562 12.968H12.872C13.6 12.968 14.1553 12.7253 14.538 12.24C14.9207 11.7453 15.112 11.1667 15.112 10.504C15.112 9.916 14.958 9.51467 14.65 9.3C14.3513 9.08533 13.8707 8.978 13.208 8.978Z" fill="white"/>
</svg>
