<svg width="129" height="50" viewBox="0 0 129 50" fill="none" xmlns="http://www.w3.org/2000/svg">
<mask id="path-1-outside-1_451_25410" maskUnits="userSpaceOnUse" x="54.791" y="10" width="70" height="21" fill="black">
<rect fill="white" x="54.791" y="10" width="70" height="21"/>
<path d="M61.481 17.611C63.449 17.8376 64.9003 18.2765 65.8347 18.9278C66.8258 19.6215 67.3214 20.6126 67.3214 21.9011C67.3214 23.232 66.8188 24.2797 65.8135 25.0443C64.7799 25.823 63.3357 26.2124 61.481 26.2124C59.5979 26.2124 58.1537 25.8018 57.1484 24.9806C56.1432 24.1735 55.6405 23.0055 55.6405 21.4763H57.3396C57.3396 23.5718 58.72 24.6195 61.481 24.6195C62.826 24.6195 63.8596 24.3718 64.5817 23.8762C65.2755 23.409 65.6224 22.7506 65.6224 21.9011C65.6224 21.094 65.2755 20.4711 64.5817 20.0321C63.9446 19.6499 62.911 19.3738 61.481 19.2039C59.6828 18.9915 58.3448 18.5738 57.467 17.9508C56.5325 17.2712 56.0653 16.3084 56.0653 15.0625C56.0653 13.7882 56.5396 12.7829 57.4882 12.0467C58.451 11.2963 59.7819 10.9211 61.481 10.9211C63.2083 10.9211 64.5392 11.3175 65.4737 12.1104C66.4223 12.9033 66.8966 14.0289 66.8966 15.4872H65.1976C65.1976 13.505 63.9587 12.5139 61.481 12.5139C60.2916 12.5139 59.3713 12.7475 58.72 13.2148C58.0829 13.6537 57.7643 14.2696 57.7643 15.0625C57.7643 15.8412 58.0829 16.4288 58.72 16.8252C59.3005 17.2075 60.2208 17.4694 61.481 17.611ZM70.0798 26V15.381H71.7789V26H70.0798ZM71.7789 11.2609C71.9912 11.4874 72.0974 11.7635 72.0974 12.0892C72.0974 12.4148 71.9912 12.6909 71.7789 12.9174C71.5523 13.144 71.2691 13.2573 70.9293 13.2573C70.5895 13.2573 70.3064 13.144 70.0798 12.9174C69.8674 12.6909 69.7613 12.4148 69.7613 12.0892C69.7613 11.7635 69.8674 11.4874 70.0798 11.2609C70.3064 11.0343 70.5895 10.9211 70.9293 10.9211C71.2691 10.9211 71.5523 11.0343 71.7789 11.2609ZM83.2415 16.3367C83.7229 16.8465 84.0415 17.4836 84.1972 18.2482C84.3388 17.4836 84.622 16.8465 85.0467 16.3367C85.7122 15.558 86.6396 15.1687 87.8289 15.1687C89.0324 15.1687 89.981 15.558 90.6748 16.3367C91.3827 17.1013 91.7367 18.1278 91.7367 19.4162V26H90.0377V19.6286C90.0377 18.7649 89.7757 18.0712 89.2519 17.5473C88.728 17.0234 88.0342 16.7615 87.1705 16.7615C86.3069 16.7615 85.6131 17.0234 85.0892 17.5473C84.5654 18.0712 84.3034 18.7649 84.3034 19.6286V26H82.6044V19.6286C82.6044 18.7649 82.3425 18.0712 81.8186 17.5473C81.2947 17.0234 80.6009 16.7615 79.7373 16.7615C78.8736 16.7615 78.1798 17.0234 77.656 17.5473C77.1321 18.0712 76.8702 18.7649 76.8702 19.6286V26H75.1711V15.381H76.8702V18.1632C77.0117 17.427 77.2808 16.8181 77.6772 16.3367C78.3002 15.558 79.2063 15.1687 80.3956 15.1687C81.5991 15.1687 82.5478 15.558 83.2415 16.3367ZM96.521 15.381V30.2476H94.822V15.381H96.521ZM100.45 24.6195C101.639 24.6195 102.595 24.2585 103.317 23.5364C104.025 22.8285 104.379 21.8798 104.379 20.6905C104.379 19.5012 104.025 18.5455 103.317 17.8234C102.595 17.1155 101.639 16.7615 100.45 16.7615C99.2607 16.7615 98.305 17.1155 97.5829 17.8234C96.875 18.5455 96.521 19.5012 96.521 20.6905C96.521 21.8798 96.875 22.8285 97.5829 23.5364C98.305 24.2585 99.2607 24.6195 100.45 24.6195ZM100.981 15.1687C102.524 15.1687 103.763 15.6713 104.698 16.6766C105.618 17.6818 106.078 19.0198 106.078 20.6905C106.078 22.3612 105.618 23.6992 104.698 24.7045C103.763 25.7097 102.524 26.2124 100.981 26.2124C99.466 26.2124 98.2979 25.7097 97.4767 24.7045C96.698 23.7417 96.3087 22.4037 96.3087 20.6905C96.3087 18.9773 96.698 17.6393 97.4767 16.6766C98.2979 15.6713 99.466 15.1687 100.981 15.1687ZM108.832 26V11.1335H110.531V26H108.832ZM122.099 15.381H123.905L117.47 30.2476H115.664L117.491 26.0425L112.861 15.381H114.666L118.383 23.9612L122.099 15.381Z"/>
</mask>
<path d="M61.481 17.611C63.449 17.8376 64.9003 18.2765 65.8347 18.9278C66.8258 19.6215 67.3214 20.6126 67.3214 21.9011C67.3214 23.232 66.8188 24.2797 65.8135 25.0443C64.7799 25.823 63.3357 26.2124 61.481 26.2124C59.5979 26.2124 58.1537 25.8018 57.1484 24.9806C56.1432 24.1735 55.6405 23.0055 55.6405 21.4763H57.3396C57.3396 23.5718 58.72 24.6195 61.481 24.6195C62.826 24.6195 63.8596 24.3718 64.5817 23.8762C65.2755 23.409 65.6224 22.7506 65.6224 21.9011C65.6224 21.094 65.2755 20.4711 64.5817 20.0321C63.9446 19.6499 62.911 19.3738 61.481 19.2039C59.6828 18.9915 58.3448 18.5738 57.467 17.9508C56.5325 17.2712 56.0653 16.3084 56.0653 15.0625C56.0653 13.7882 56.5396 12.7829 57.4882 12.0467C58.451 11.2963 59.7819 10.9211 61.481 10.9211C63.2083 10.9211 64.5392 11.3175 65.4737 12.1104C66.4223 12.9033 66.8966 14.0289 66.8966 15.4872H65.1976C65.1976 13.505 63.9587 12.5139 61.481 12.5139C60.2916 12.5139 59.3713 12.7475 58.72 13.2148C58.0829 13.6537 57.7643 14.2696 57.7643 15.0625C57.7643 15.8412 58.0829 16.4288 58.72 16.8252C59.3005 17.2075 60.2208 17.4694 61.481 17.611ZM70.0798 26V15.381H71.7789V26H70.0798ZM71.7789 11.2609C71.9912 11.4874 72.0974 11.7635 72.0974 12.0892C72.0974 12.4148 71.9912 12.6909 71.7789 12.9174C71.5523 13.144 71.2691 13.2573 70.9293 13.2573C70.5895 13.2573 70.3064 13.144 70.0798 12.9174C69.8674 12.6909 69.7613 12.4148 69.7613 12.0892C69.7613 11.7635 69.8674 11.4874 70.0798 11.2609C70.3064 11.0343 70.5895 10.9211 70.9293 10.9211C71.2691 10.9211 71.5523 11.0343 71.7789 11.2609ZM83.2415 16.3367C83.7229 16.8465 84.0415 17.4836 84.1972 18.2482C84.3388 17.4836 84.622 16.8465 85.0467 16.3367C85.7122 15.558 86.6396 15.1687 87.8289 15.1687C89.0324 15.1687 89.981 15.558 90.6748 16.3367C91.3827 17.1013 91.7367 18.1278 91.7367 19.4162V26H90.0377V19.6286C90.0377 18.7649 89.7757 18.0712 89.2519 17.5473C88.728 17.0234 88.0342 16.7615 87.1705 16.7615C86.3069 16.7615 85.6131 17.0234 85.0892 17.5473C84.5654 18.0712 84.3034 18.7649 84.3034 19.6286V26H82.6044V19.6286C82.6044 18.7649 82.3425 18.0712 81.8186 17.5473C81.2947 17.0234 80.6009 16.7615 79.7373 16.7615C78.8736 16.7615 78.1798 17.0234 77.656 17.5473C77.1321 18.0712 76.8702 18.7649 76.8702 19.6286V26H75.1711V15.381H76.8702V18.1632C77.0117 17.427 77.2808 16.8181 77.6772 16.3367C78.3002 15.558 79.2063 15.1687 80.3956 15.1687C81.5991 15.1687 82.5478 15.558 83.2415 16.3367ZM96.521 15.381V30.2476H94.822V15.381H96.521ZM100.45 24.6195C101.639 24.6195 102.595 24.2585 103.317 23.5364C104.025 22.8285 104.379 21.8798 104.379 20.6905C104.379 19.5012 104.025 18.5455 103.317 17.8234C102.595 17.1155 101.639 16.7615 100.45 16.7615C99.2607 16.7615 98.305 17.1155 97.5829 17.8234C96.875 18.5455 96.521 19.5012 96.521 20.6905C96.521 21.8798 96.875 22.8285 97.5829 23.5364C98.305 24.2585 99.2607 24.6195 100.45 24.6195ZM100.981 15.1687C102.524 15.1687 103.763 15.6713 104.698 16.6766C105.618 17.6818 106.078 19.0198 106.078 20.6905C106.078 22.3612 105.618 23.6992 104.698 24.7045C103.763 25.7097 102.524 26.2124 100.981 26.2124C99.466 26.2124 98.2979 25.7097 97.4767 24.7045C96.698 23.7417 96.3087 22.4037 96.3087 20.6905C96.3087 18.9773 96.698 17.6393 97.4767 16.6766C98.2979 15.6713 99.466 15.1687 100.981 15.1687ZM108.832 26V11.1335H110.531V26H108.832ZM122.099 15.381H123.905L117.47 30.2476H115.664L117.491 26.0425L112.861 15.381H114.666L118.383 23.9612L122.099 15.381Z" fill="#111111"/>
<path d="M61.481 17.611L61.5108 17.3516L61.5101 17.3515L61.481 17.611ZM65.8347 18.9278L65.9845 18.7139L65.984 18.7136L65.8347 18.9278ZM65.8135 25.0443L65.9706 25.2528L65.9716 25.2521L65.8135 25.0443ZM57.1484 24.9806L57.3136 24.7784L57.3119 24.777L57.1484 24.9806ZM55.6405 21.4763V21.2152H55.3794V21.4763H55.6405ZM57.3396 21.4763H57.6007V21.2152H57.3396V21.4763ZM64.5817 23.8762L64.4358 23.6596L64.4339 23.6609L64.5817 23.8762ZM64.5817 20.0321L64.7213 19.8114L64.716 19.8082L64.5817 20.0321ZM61.481 19.2039L61.5118 18.9446L61.5116 18.9446L61.481 19.2039ZM57.467 17.9508L57.3134 18.162L57.3159 18.1638L57.467 17.9508ZM57.4882 12.0467L57.6483 12.253L57.6487 12.2526L57.4882 12.0467ZM65.4737 12.1104L65.3047 12.3095L65.3062 12.3107L65.4737 12.1104ZM66.8966 15.4872V15.7483H67.1577V15.4872H66.8966ZM65.1976 15.4872H64.9365V15.7483H65.1976V15.4872ZM58.72 13.2148L58.8682 13.4298L58.8722 13.4269L58.72 13.2148ZM58.72 16.8252L58.8637 16.6071L58.858 16.6035L58.72 16.8252ZM61.481 17.611L61.4511 17.8704C63.4037 18.0952 64.8037 18.5275 65.6854 19.142L65.8347 18.9278L65.984 18.7136C64.9968 18.0255 63.4943 17.5799 61.5108 17.3516L61.481 17.611ZM65.8347 18.9278L65.685 19.1417C66.6011 19.783 67.0603 20.6913 67.0603 21.9011H67.3214H67.5825C67.5825 20.534 67.0506 19.4601 65.9845 18.7139L65.8347 18.9278ZM67.3214 21.9011H67.0603C67.0603 23.1555 66.5918 24.1243 65.6554 24.8365L65.8135 25.0443L65.9716 25.2521C67.0457 24.4352 67.5825 23.3084 67.5825 21.9011H67.3214ZM65.8135 25.0443L65.6564 24.8357C64.684 25.5684 63.3028 25.9513 61.481 25.9513V26.2124V26.4735C63.3687 26.4735 64.8759 26.0776 65.9706 25.2528L65.8135 25.0443ZM61.481 26.2124V25.9513C59.6317 25.9513 58.2552 25.5476 57.3136 24.7784L57.1484 24.9806L56.9832 25.1828C58.0521 26.056 59.5641 26.4735 61.481 26.4735V26.2124ZM57.1484 24.9806L57.3119 24.777C56.3801 24.0289 55.9016 22.9427 55.9016 21.4763H55.6405H55.3794C55.3794 23.0682 55.9062 24.3181 56.985 25.1842L57.1484 24.9806ZM55.6405 21.4763V21.7374H57.3396V21.4763V21.2152H55.6405V21.4763ZM57.3396 21.4763H57.0785C57.0785 22.5866 57.4479 23.458 58.2171 24.0417C58.9726 24.6152 60.0749 24.8806 61.481 24.8806V24.6195V24.3584C60.1261 24.3584 59.1577 24.1001 58.5328 23.6257C57.9214 23.1618 57.6007 22.4615 57.6007 21.4763H57.3396ZM61.481 24.6195V24.8806C62.8524 24.8806 63.9463 24.629 64.7294 24.0915L64.5817 23.8762L64.4339 23.6609C63.7729 24.1146 62.7996 24.3584 61.481 24.3584V24.6195ZM64.5817 23.8762L64.7276 24.0928C65.4947 23.5761 65.8835 22.8358 65.8835 21.9011H65.6224H65.3612C65.3612 22.6654 65.0562 23.2418 64.4358 23.6596L64.5817 23.8762ZM65.6224 21.9011H65.8835C65.8835 21.0027 65.4891 20.2973 64.7213 19.8115L64.5817 20.0321L64.4421 20.2528C65.0618 20.6449 65.3612 21.1854 65.3612 21.9011H65.6224ZM64.5817 20.0321L64.716 19.8082C64.0298 19.3965 62.9504 19.1155 61.5118 18.9446L61.481 19.2039L61.4502 19.4632C62.8715 19.632 63.8594 19.9032 64.4474 20.256L64.5817 20.0321ZM61.481 19.2039L61.5116 18.9446C59.7308 18.7342 58.4437 18.3238 57.6181 17.7379L57.467 17.9508L57.3159 18.1638C58.2459 18.8238 59.6348 19.2487 61.4503 19.4632L61.481 19.2039ZM57.467 17.9508L57.6206 17.7397C56.7596 17.1135 56.3264 16.2325 56.3264 15.0625H56.0653H55.8042C55.8042 16.3843 56.3054 17.4289 57.3134 18.162L57.467 17.9508ZM56.0653 15.0625H56.3264C56.3264 13.8632 56.7678 12.9363 57.6483 12.253L57.4882 12.0467L57.3281 11.8404C56.3114 12.6295 55.8042 13.7132 55.8042 15.0625H56.0653ZM57.4882 12.0467L57.6487 12.2526C58.5507 11.5497 59.8177 11.1822 61.481 11.1822V10.9211V10.66C59.7462 10.66 58.3514 11.0429 57.3277 11.8407L57.4882 12.0467ZM61.481 10.9211V11.1822C63.1715 11.1822 64.4336 11.5703 65.3048 12.3095L65.4737 12.1104L65.6426 11.9113C64.6449 11.0647 63.2451 10.66 61.481 10.66V10.9211ZM65.4737 12.1104L65.3062 12.3107C66.1846 13.0449 66.6355 14.0909 66.6355 15.4872H66.8966H67.1577C67.1577 13.9669 66.66 12.7616 65.6411 11.9101L65.4737 12.1104ZM66.8966 15.4872V15.2261H65.1976V15.4872V15.7483H66.8966V15.4872ZM65.1976 15.4872H65.4587C65.4587 14.4385 65.1281 13.6106 64.4316 13.0534C63.7461 12.505 62.7477 12.2528 61.481 12.2528V12.5139V12.775C62.6919 12.775 63.5519 13.0184 64.1053 13.4611C64.6477 13.895 64.9365 14.5538 64.9365 15.4872H65.1976ZM61.481 12.5139V12.2528C60.2621 12.2528 59.2803 12.4915 58.5678 13.0026L58.72 13.2148L58.8722 13.4269C59.4624 13.0036 60.3212 12.775 61.481 12.775V12.5139ZM58.72 13.2148L58.5719 12.9997C57.862 13.4888 57.5032 14.1862 57.5032 15.0625H57.7643H58.0254C58.0254 14.3529 58.3038 13.8186 58.8682 13.4298L58.72 13.2148ZM57.7643 15.0625H57.5032C57.5032 15.9273 57.8649 16.6007 58.5821 17.0469L58.72 16.8252L58.858 16.6035C58.3009 16.2569 58.0254 15.7551 58.0254 15.0625H57.7643ZM58.72 16.8252L58.5764 17.0433C59.2091 17.4599 60.1793 17.7275 61.4518 17.8705L61.481 17.611L61.5101 17.3515C60.2624 17.2114 59.392 16.9551 58.8636 16.6071L58.72 16.8252ZM70.0798 26H69.8187V26.2611H70.0798V26ZM70.0798 15.381V15.1199H69.8187V15.381H70.0798ZM71.7789 15.381H72.04V15.1199H71.7789V15.381ZM71.7789 26V26.2611H72.04V26H71.7789ZM71.7789 11.2609L71.9694 11.0822L71.9635 11.0763L71.7789 11.2609ZM71.7789 12.9174L71.9636 13.1022L71.9693 13.096L71.7789 12.9174ZM70.0798 12.9174L69.8892 13.0961L69.8952 13.1021L70.0798 12.9174ZM70.0798 11.2609L69.8951 11.0762L69.8893 11.0823L70.0798 11.2609ZM70.0798 26H70.3409V15.381H70.0798H69.8187V26H70.0798ZM70.0798 15.381V15.6422H71.7789V15.381V15.1199H70.0798V15.381ZM71.7789 15.381H71.5177V26H71.7789H72.04V15.381H71.7789ZM71.7789 26V25.7389H70.0798V26V26.2611H71.7789V26ZM71.7789 11.2609L71.5884 11.4395C71.753 11.6151 71.8363 11.8263 71.8363 12.0892H72.0974H72.3585C72.3585 11.7007 72.2295 11.3598 71.9693 11.0823L71.7789 11.2609ZM72.0974 12.0892H71.8363C71.8363 12.352 71.753 12.5633 71.5884 12.7389L71.7789 12.9174L71.9693 13.096C72.2295 12.8186 72.3585 12.4776 72.3585 12.0892H72.0974ZM71.7789 12.9174L71.5942 12.7328C71.4199 12.9072 71.2046 12.9961 70.9293 12.9961V13.2573V13.5184C71.3337 13.5184 71.6848 13.3808 71.9635 13.1021L71.7789 12.9174ZM70.9293 13.2573V12.9961C70.6541 12.9961 70.4388 12.9072 70.2645 12.7328L70.0798 12.9174L69.8952 13.1021C70.1739 13.3808 70.5249 13.5184 70.9293 13.5184V13.2573ZM70.0798 12.9174L70.2703 12.7389C70.1057 12.5633 70.0224 12.352 70.0224 12.0892H69.7613H69.5001C69.5001 12.4776 69.6292 12.8186 69.8893 13.096L70.0798 12.9174ZM69.7613 12.0892H70.0224C70.0224 11.8263 70.1057 11.6151 70.2703 11.4395L70.0798 11.2609L69.8893 11.0823C69.6292 11.3598 69.5001 11.7007 69.5001 12.0892H69.7613ZM70.0798 11.2609L70.2645 11.4455C70.4388 11.2712 70.6541 11.1822 70.9293 11.1822V10.9211V10.66C70.5249 10.66 70.1739 10.7975 69.8952 11.0763L70.0798 11.2609ZM70.9293 10.9211V11.1822C71.2046 11.1822 71.4199 11.2712 71.5942 11.4455L71.7789 11.2609L71.9635 11.0763C71.6848 10.7975 71.3337 10.66 70.9293 10.66V10.9211ZM83.2415 16.3367L83.0465 16.5105L83.0517 16.516L83.2415 16.3367ZM84.1972 18.2482L83.9414 18.3003L84.454 18.2957L84.1972 18.2482ZM85.0467 16.3367L84.8482 16.1671L84.8462 16.1696L85.0467 16.3367ZM90.6748 16.3367L90.4798 16.5105L90.4832 16.5141L90.6748 16.3367ZM91.7367 26V26.2611H91.9978V26H91.7367ZM90.0377 26H89.7765V26.2611H90.0377V26ZM84.3034 26V26.2611H84.5645V26H84.3034ZM82.6044 26H82.3433V26.2611H82.6044V26ZM76.8702 26V26.2611H77.1313V26H76.8702ZM75.1711 26H74.91V26.2611H75.1711V26ZM75.1711 15.381V15.1199H74.91V15.381H75.1711ZM76.8702 15.381H77.1313V15.1199H76.8702V15.381ZM76.8702 18.1632H76.609L77.1266 18.2125L76.8702 18.1632ZM77.6772 16.3367L77.8788 16.5028L77.8811 16.4999L77.6772 16.3367ZM83.2415 16.3367L83.0517 16.516C83.496 16.9864 83.7942 17.5779 83.9414 18.3003L84.1972 18.2482L84.4531 18.196C84.2888 17.3893 83.9499 16.7065 83.4314 16.1575L83.2415 16.3367ZM84.1972 18.2482L84.454 18.2957C84.5888 17.5676 84.8558 16.9737 85.2473 16.5039L85.0467 16.3367L84.8462 16.1696C84.3882 16.7192 84.0888 17.3996 83.9405 18.2006L84.1972 18.2482ZM85.0467 16.3367L85.2453 16.5064C85.8529 15.7953 86.7023 15.4298 87.8289 15.4298V15.1687V14.9076C86.5769 14.9076 85.5715 15.3207 84.8482 16.1671L85.0467 16.3367ZM87.8289 15.1687V15.4298C88.9706 15.4298 89.8434 15.7961 90.4798 16.5104L90.6748 16.3367L90.8698 16.1631C90.1186 15.3199 89.0942 14.9076 87.8289 14.9076V15.1687ZM90.6748 16.3367L90.4832 16.5141C91.1365 17.2197 91.4756 18.1773 91.4756 19.4162H91.7367H91.9978C91.9978 18.0783 91.629 16.9829 90.8664 16.1593L90.6748 16.3367ZM91.7367 19.4162H91.4756V26H91.7367H91.9978V19.4162H91.7367ZM91.7367 26V25.7389H90.0377V26V26.2611H91.7367V26ZM90.0377 26H90.2988V19.6286H90.0377H89.7765V26H90.0377ZM90.0377 19.6286H90.2988C90.2988 18.7081 90.0174 17.9436 89.4365 17.3627L89.2519 17.5473L89.0672 17.7319C89.534 18.1987 89.7765 18.8218 89.7765 19.6286H90.0377ZM89.2519 17.5473L89.4365 17.3627C88.8555 16.7817 88.0911 16.5004 87.1705 16.5004V16.7615V17.0226C87.9774 17.0226 88.6004 17.2652 89.0672 17.7319L89.2519 17.5473ZM87.1705 16.7615V16.5004C86.25 16.5004 85.4855 16.7817 84.9046 17.3627L85.0892 17.5473L85.2739 17.7319C85.7406 17.2652 86.3637 17.0226 87.1705 17.0226V16.7615ZM85.0892 17.5473L84.9046 17.3627C84.3236 17.9436 84.0423 18.7081 84.0423 19.6286H84.3034H84.5645C84.5645 18.8218 84.8071 18.1987 85.2739 17.7319L85.0892 17.5473ZM84.3034 19.6286H84.0423V26H84.3034H84.5645V19.6286H84.3034ZM84.3034 26V25.7389H82.6044V26V26.2611H84.3034V26ZM82.6044 26H82.8655V19.6286H82.6044H82.3433V26H82.6044ZM82.6044 19.6286H82.8655C82.8655 18.7081 82.5842 17.9436 82.0032 17.3627L81.8186 17.5473L81.634 17.7319C82.1007 18.1987 82.3433 18.8218 82.3433 19.6286H82.6044ZM81.8186 17.5473L82.0032 17.3627C81.4223 16.7817 80.6578 16.5004 79.7373 16.5004V16.7615V17.0226C80.5441 17.0226 81.1672 17.2652 81.634 17.7319L81.8186 17.5473ZM79.7373 16.7615V16.5004C78.8167 16.5004 78.0523 16.7817 77.4713 17.3627L77.656 17.5473L77.8406 17.7319C78.3074 17.2652 78.9304 17.0226 79.7373 17.0226V16.7615ZM77.656 17.5473L77.4713 17.3627C76.8904 17.9436 76.609 18.7081 76.609 19.6286H76.8702H77.1313C77.1313 18.8218 77.3738 18.1987 77.8406 17.7319L77.656 17.5473ZM76.8702 19.6286H76.609V26H76.8702H77.1313V19.6286H76.8702ZM76.8702 26V25.7389H75.1711V26V26.2611H76.8702V26ZM75.1711 26H75.4322V15.381H75.1711H74.91V26H75.1711ZM75.1711 15.381V15.6422H76.8702V15.381V15.1199H75.1711V15.381ZM76.8702 15.381H76.609V18.1632H76.8702H77.1313V15.381H76.8702ZM76.8702 18.1632L77.1266 18.2125C77.2616 17.5105 77.5152 16.9442 77.8788 16.5027L77.6772 16.3367L77.4756 16.1708C77.0463 16.692 76.7619 17.3434 76.6137 18.1139L76.8702 18.1632ZM77.6772 16.3367L77.8811 16.4999C78.4448 15.7952 79.2686 15.4298 80.3956 15.4298V15.1687V14.9076C79.144 14.9076 78.1556 15.3208 77.4733 16.1736L77.6772 16.3367ZM80.3956 15.1687V15.4298C81.5373 15.4298 82.4102 15.7961 83.0466 16.5104L83.2415 16.3367L83.4365 16.1631C82.6853 15.3199 81.661 14.9076 80.3956 14.9076V15.1687ZM96.521 15.381H96.7821V15.1199H96.521V15.381ZM96.521 30.2476V30.5087H96.7821V30.2476H96.521ZM94.822 30.2476H94.5609V30.5087H94.822V30.2476ZM94.822 15.381V15.1199H94.5609V15.381H94.822ZM103.317 23.5364L103.133 23.3518L103.133 23.3518L103.317 23.5364ZM103.317 17.8234L103.504 17.6406L103.5 17.6369L103.317 17.8234ZM97.5829 17.8234L97.4001 17.6369L97.3965 17.6406L97.5829 17.8234ZM97.5829 23.5364L97.3983 23.721L97.3983 23.721L97.5829 23.5364ZM104.698 16.6766L104.89 16.5002L104.889 16.4988L104.698 16.6766ZM104.698 24.7045L104.889 24.8823L104.89 24.8808L104.698 24.7045ZM97.4767 24.7045L97.2737 24.8687L97.2745 24.8697L97.4767 24.7045ZM97.4767 16.6766L97.2745 16.5114L97.2737 16.5124L97.4767 16.6766ZM96.521 15.381H96.2599V30.2476H96.521H96.7821V15.381H96.521ZM96.521 30.2476V29.9865H94.822V30.2476V30.5087H96.521V30.2476ZM94.822 30.2476H95.0831V15.381H94.822H94.5609V30.2476H94.822ZM94.822 15.381V15.6422H96.521V15.381V15.1199H94.822V15.381ZM100.45 24.6195V24.8806C101.696 24.8806 102.723 24.5002 103.502 23.721L103.317 23.5364L103.133 23.3518C102.467 24.0168 101.582 24.3584 100.45 24.3584V24.6195ZM103.317 23.5364L103.502 23.721C104.268 22.9551 104.64 21.9351 104.64 20.6905H104.379H104.118C104.118 21.8246 103.782 22.7019 103.133 23.3518L103.317 23.5364ZM104.379 20.6905H104.64C104.64 19.4458 104.268 18.42 103.504 17.6406L103.317 17.8234L103.131 18.0062C103.782 18.671 104.118 19.5566 104.118 20.6905H104.379ZM103.317 17.8234L103.5 17.6369C102.721 16.8728 101.695 16.5004 100.45 16.5004V16.7615V17.0226C101.584 17.0226 102.47 17.3581 103.134 18.0099L103.317 17.8234ZM100.45 16.7615V16.5004C99.2053 16.5004 98.1795 16.8728 97.4001 17.6369L97.5829 17.8234L97.7657 18.0099C98.4305 17.3581 99.3161 17.0226 100.45 17.0226V16.7615ZM97.5829 17.8234L97.3965 17.6406C96.6323 18.42 96.2599 19.4458 96.2599 20.6905H96.521H96.7821C96.7821 19.5566 97.1176 18.671 97.7694 18.0062L97.5829 17.8234ZM96.521 20.6905H96.2599C96.2599 21.9351 96.6323 22.9551 97.3983 23.721L97.5829 23.5364L97.7676 23.3518C97.1177 22.7019 96.7821 21.8246 96.7821 20.6905H96.521ZM97.5829 23.5364L97.3983 23.721C98.1774 24.5002 99.2038 24.8806 100.45 24.8806V24.6195V24.3584C99.3177 24.3584 98.4326 24.0168 97.7676 23.3518L97.5829 23.5364ZM100.981 15.1687V15.4298C102.462 15.4298 103.628 15.9091 104.506 16.8543L104.698 16.6766L104.889 16.4988C103.899 15.4335 102.587 14.9076 100.981 14.9076V15.1687ZM104.698 16.6766L104.505 16.8529C105.372 17.7997 105.817 19.0696 105.817 20.6905H106.078H106.339C106.339 18.97 105.864 17.5639 104.89 16.5002L104.698 16.6766ZM106.078 20.6905H105.817C105.817 22.3114 105.372 23.5814 104.505 24.5282L104.698 24.7045L104.89 24.8808C105.864 23.8171 106.339 22.411 106.339 20.6905H106.078ZM104.698 24.7045L104.506 24.5267C103.628 25.4719 102.462 25.9513 100.981 25.9513V26.2124V26.4735C102.587 26.4735 103.899 25.9476 104.889 24.8823L104.698 24.7045ZM100.981 26.2124V25.9513C99.5298 25.9513 98.442 25.4734 97.679 24.5393L97.4767 24.7045L97.2745 24.8697C98.1539 25.9461 99.4023 26.4735 100.981 26.4735V26.2124ZM97.4767 24.7045L97.6798 24.5403C96.9508 23.639 96.5698 22.3666 96.5698 20.6905H96.3087H96.0475C96.0475 22.4408 96.4453 23.8444 97.2737 24.8687L97.4767 24.7045ZM96.3087 20.6905H96.5698C96.5698 19.0144 96.9508 17.7421 97.6798 16.8408L97.4767 16.6766L97.2737 16.5124C96.4453 17.5366 96.0475 18.9402 96.0475 20.6905H96.3087ZM97.4767 16.6766L97.679 16.8417C98.442 15.9077 99.5298 15.4298 100.981 15.4298V15.1687V14.9076C99.4023 14.9076 98.1539 15.4349 97.2745 16.5114L97.4767 16.6766ZM108.832 26H108.57V26.2611H108.832V26ZM108.832 11.1335V10.8723H108.57V11.1335H108.832ZM110.531 11.1335H110.792V10.8723H110.531V11.1335ZM110.531 26V26.2611H110.792V26H110.531ZM108.832 26H109.093V11.1335H108.832H108.57V26H108.832ZM108.832 11.1335V11.3946H110.531V11.1335V10.8723H108.832V11.1335ZM110.531 11.1335H110.269V26H110.531H110.792V11.1335H110.531ZM110.531 26V25.7389H108.832V26V26.2611H110.531V26ZM122.099 15.381V15.1199H121.928L121.86 15.2773L122.099 15.381ZM123.905 15.381L124.144 15.4848L124.302 15.1199H123.905V15.381ZM117.47 30.2476V30.5087H117.641L117.709 30.3513L117.47 30.2476ZM115.664 30.2476L115.425 30.1436L115.266 30.5087H115.664V30.2476ZM117.491 26.0425L117.73 26.1465L117.775 26.0425L117.73 25.9385L117.491 26.0425ZM112.861 15.381V15.1199H112.463L112.621 15.485L112.861 15.381ZM114.666 15.381L114.906 15.2773L114.838 15.1199H114.666V15.381ZM118.383 23.9612L118.143 24.0649L118.383 24.6181L118.622 24.0649L118.383 23.9612ZM122.099 15.381V15.6422H123.905V15.381V15.1199H122.099V15.381ZM123.905 15.381L123.665 15.2773L117.23 30.1439L117.47 30.2476L117.709 30.3513L124.144 15.4848L123.905 15.381ZM117.47 30.2476V29.9865H115.664V30.2476V30.5087H117.47V30.2476ZM115.664 30.2476L115.904 30.3516L117.73 26.1465L117.491 26.0425L117.251 25.9385L115.425 30.1436L115.664 30.2476ZM117.491 26.0425L117.73 25.9385L113.1 15.277L112.861 15.381L112.621 15.485L117.251 26.1465L117.491 26.0425ZM112.861 15.381V15.6422H114.666V15.381V15.1199H112.861V15.381ZM114.666 15.381L114.427 15.4848L118.143 24.0649L118.383 23.9612L118.622 23.8574L114.906 15.2773L114.666 15.381ZM118.383 23.9612L118.622 24.0649L122.339 15.4848L122.099 15.381L121.86 15.2773L118.143 23.8574L118.383 23.9612Z" fill="#111111" mask="url(#path-1-outside-1_451_25410)"/>
<path d="M6.46003 7.90355C7.32321 3.53854 11.5615 0.699743 15.9265 1.56292L36.9773 5.7257L39.2963 24.5504L12.4313 19.2379C8.06629 18.3747 5.22748 14.1364 6.09066 9.77142L6.46003 7.90355Z" fill="#CCFE00"/>
<path d="M36.3458 29.3663C35.3508 25.0294 31.0285 22.3203 26.6916 23.3152L5.77649 28.1137L4.02875 47L30.7205 40.8762C35.0574 39.8813 37.7665 35.559 36.7715 31.2221L36.3458 29.3663Z" fill="#CCFE00"/>
<path d="M59.3264 36.8848C59.5338 37.1376 59.6796 37.4454 59.7639 37.8084V34.3473H60.5417V41.1528H59.7639V39.6362C59.6796 39.9991 59.5338 40.307 59.3264 40.5598C58.9505 41.02 58.4157 41.2501 57.7222 41.2501C57.0157 41.2501 56.4486 41.02 56.0208 40.5598C55.5995 40.0996 55.3889 39.4871 55.3889 38.7223C55.3889 37.9575 55.5995 37.345 56.0208 36.8848C56.4486 36.4246 57.0157 36.1945 57.7222 36.1945C58.4157 36.1945 58.9505 36.4246 59.3264 36.8848ZM56.6528 40.0251C56.9833 40.3556 57.4208 40.5209 57.9653 40.5209C58.5097 40.5209 58.9472 40.3556 59.2778 40.0251C59.6019 39.701 59.7639 39.2667 59.7639 38.7223C59.7639 38.1778 59.6019 37.7403 59.2778 37.4098C58.9472 37.0857 58.5097 36.9237 57.9653 36.9237C57.4208 36.9237 56.9833 37.0857 56.6528 37.4098C56.3287 37.7403 56.1667 38.1778 56.1667 38.7223C56.1667 39.2667 56.3287 39.701 56.6528 40.0251ZM62.0938 41.1528V36.2917H62.8716V41.1528H62.0938ZM62.8716 34.4056C62.9688 34.5093 63.0174 34.6357 63.0174 34.7848C63.0174 34.9339 62.9688 35.0602 62.8716 35.1639C62.7679 35.2676 62.6382 35.3195 62.4827 35.3195C62.3271 35.3195 62.1975 35.2676 62.0938 35.1639C61.9966 35.0602 61.948 34.9339 61.948 34.7848C61.948 34.6357 61.9966 34.5093 62.0938 34.4056C62.1975 34.3019 62.3271 34.2501 62.4827 34.2501C62.6382 34.2501 62.7679 34.3019 62.8716 34.4056ZM68.0703 36.8751C68.2777 37.1214 68.4236 37.426 68.5078 37.7889V36.2917H69.2856V40.8612C69.2856 41.613 69.0523 42.1931 68.5856 42.6014C68.1319 42.9968 67.5064 43.1945 66.7092 43.1945C65.9898 43.1945 65.4097 43.0292 64.9689 42.6987C64.5152 42.3616 64.2495 41.8788 64.1717 41.2501H64.9495C65.0986 42.0602 65.6851 42.4653 66.7092 42.4653C67.2731 42.4653 67.7106 42.3325 68.0217 42.0667C68.3458 41.7945 68.5078 41.3926 68.5078 40.8612V39.5584C68.4236 39.9214 68.2777 40.226 68.0703 40.4723C67.6944 40.926 67.1597 41.1528 66.4661 41.1528C65.7597 41.1528 65.1925 40.926 64.7648 40.4723C64.3435 40.0251 64.1328 39.4255 64.1328 38.6737C64.1328 37.9218 64.3435 37.3223 64.7648 36.8751C65.1925 36.4214 65.7597 36.1945 66.4661 36.1945C67.1597 36.1945 67.6944 36.4214 68.0703 36.8751ZM65.3967 39.9473C65.7273 40.2649 66.1648 40.4237 66.7092 40.4237C67.2536 40.4237 67.6911 40.2649 68.0217 39.9473C68.3458 39.6297 68.5078 39.2051 68.5078 38.6737C68.5078 38.1422 68.3458 37.7176 68.0217 37.4001C67.6911 37.0825 67.2536 36.9237 66.7092 36.9237C66.1648 36.9237 65.7273 37.0825 65.3967 37.4001C65.0726 37.7176 64.9106 38.1422 64.9106 38.6737C64.9106 39.2051 65.0726 39.6297 65.3967 39.9473ZM70.8377 41.1528V36.2917H71.6155V41.1528H70.8377ZM71.6155 34.4056C71.7127 34.5093 71.7613 34.6357 71.7613 34.7848C71.7613 34.9339 71.7127 35.0602 71.6155 35.1639C71.5118 35.2676 71.3822 35.3195 71.2266 35.3195C71.0711 35.3195 70.9414 35.2676 70.8377 35.1639C70.7405 35.0602 70.6919 34.9339 70.6919 34.7848C70.6919 34.6357 70.7405 34.5093 70.8377 34.4056C70.9414 34.3019 71.0711 34.2501 71.2266 34.2501C71.3822 34.2501 71.5118 34.3019 71.6155 34.4056ZM74.7726 34.3473V36.2917H76.2309V37.0209H74.7726V41.1528H73.9948V37.0209H72.7309V36.2917H73.9948V34.8334L74.7726 34.3473ZM80.721 36.8848C80.9284 37.1376 81.0742 37.4454 81.1585 37.8084V36.2917H81.9363V41.1528H81.1585V39.6362C81.0742 39.9991 80.9284 40.307 80.721 40.5598C80.345 41.02 79.8103 41.2501 79.1168 41.2501C78.4103 41.2501 77.8432 41.02 77.4154 40.5598C76.9941 40.0996 76.7835 39.4871 76.7835 38.7223C76.7835 37.9575 76.9941 37.345 77.4154 36.8848C77.8432 36.4246 78.4103 36.1945 79.1168 36.1945C79.8103 36.1945 80.345 36.4246 80.721 36.8848ZM78.0474 40.0251C78.3779 40.3556 78.8154 40.5209 79.3599 40.5209C79.9043 40.5209 80.3418 40.3556 80.6724 40.0251C80.9964 39.701 81.1585 39.2667 81.1585 38.7223C81.1585 38.1778 80.9964 37.7403 80.6724 37.4098C80.3418 37.0857 79.9043 36.9237 79.3599 36.9237C78.8154 36.9237 78.3779 37.0857 78.0474 37.4098C77.7233 37.7403 77.5613 38.1778 77.5613 38.7223C77.5613 39.2667 77.7233 39.701 78.0474 40.0251ZM83.4884 41.1528V34.3473H84.2662V41.1528H83.4884ZM92.2798 36.8848C92.4872 37.1376 92.633 37.4454 92.7173 37.8084V36.2917H93.4951V41.1528H92.7173V39.6362C92.633 39.9991 92.4872 40.307 92.2798 40.5598C91.9039 41.02 91.3691 41.2501 90.6756 41.2501C89.9691 41.2501 89.402 41.02 88.9742 40.5598C88.5529 40.0996 88.3423 39.4871 88.3423 38.7223C88.3423 37.9575 88.5529 37.345 88.9742 36.8848C89.402 36.4246 89.9691 36.1945 90.6756 36.1945C91.3691 36.1945 91.9039 36.4246 92.2798 36.8848ZM89.6062 40.0251C89.9367 40.3556 90.3742 40.5209 90.9187 40.5209C91.4631 40.5209 91.9006 40.3556 92.2312 40.0251C92.5552 39.701 92.7173 39.2667 92.7173 38.7223C92.7173 38.1778 92.5552 37.7403 92.2312 37.4098C91.9006 37.0857 91.4631 36.9237 90.9187 36.9237C90.3742 36.9237 89.9367 37.0857 89.6062 37.4098C89.2821 37.7403 89.1201 38.1778 89.1201 38.7223C89.1201 39.2667 89.2821 39.701 89.6062 40.0251ZM98.693 36.8751C98.9004 37.1214 99.0463 37.426 99.1305 37.7889V36.2917H99.9083V40.8612C99.9083 41.613 99.675 42.1931 99.2083 42.6014C98.7546 42.9968 98.1291 43.1945 97.3319 43.1945C96.6125 43.1945 96.0324 43.0292 95.5916 42.6987C95.1379 42.3616 94.8722 41.8788 94.7944 41.2501H95.5722C95.7213 42.0602 96.3078 42.4653 97.3319 42.4653C97.8958 42.4653 98.3333 42.3325 98.6444 42.0667C98.9685 41.7945 99.1305 41.3926 99.1305 40.8612V39.5584C99.0463 39.9214 98.9004 40.226 98.693 40.4723C98.3171 40.926 97.7824 41.1528 97.0889 41.1528C96.3824 41.1528 95.8153 40.926 95.3875 40.4723C94.9662 40.0251 94.7555 39.4255 94.7555 38.6737C94.7555 37.9218 94.9662 37.3223 95.3875 36.8751C95.8153 36.4214 96.3824 36.1945 97.0889 36.1945C97.7824 36.1945 98.3171 36.4214 98.693 36.8751ZM96.0194 39.9473C96.35 40.2649 96.7875 40.4237 97.3319 40.4237C97.8764 40.4237 98.3139 40.2649 98.6444 39.9473C98.9685 39.6297 99.1305 39.2051 99.1305 38.6737C99.1305 38.1422 98.9685 37.7176 98.6444 37.4001C98.3139 37.0825 97.8764 36.9237 97.3319 36.9237C96.7875 36.9237 96.35 37.0825 96.0194 37.4001C95.6953 37.7176 95.5333 38.1422 95.5333 38.6737C95.5333 39.2051 95.6953 39.6297 96.0194 39.9473ZM104.941 37.3126C104.623 37.0533 104.225 36.9237 103.745 36.9237C103.266 36.9237 102.867 37.0533 102.549 37.3126C102.238 37.5653 102.047 37.9121 101.976 38.3528H105.515C105.443 37.9121 105.252 37.5653 104.941 37.3126ZM101.869 36.8848C102.342 36.4246 102.967 36.1945 103.745 36.1945C104.523 36.1945 105.148 36.4246 105.622 36.8848C106.088 37.345 106.322 37.9575 106.322 38.7223L106.312 38.907L106.292 39.082H101.976C102.047 39.5292 102.238 39.8792 102.549 40.132C102.867 40.3913 103.266 40.5209 103.745 40.5209C104.439 40.5209 104.944 40.2681 105.262 39.7626H106.137C105.955 40.2292 105.657 40.5922 105.242 40.8514C104.821 41.1172 104.322 41.2501 103.745 41.2501C102.967 41.2501 102.342 41.02 101.869 40.5598C101.402 40.0996 101.169 39.4871 101.169 38.7223C101.169 37.9575 101.402 37.345 101.869 36.8848ZM108.367 36.2917V37.7403C108.431 37.3514 108.571 37.0306 108.785 36.7778C109.102 36.3889 109.562 36.1945 110.165 36.1945C110.775 36.1945 111.261 36.3889 111.624 36.7778C111.98 37.1667 112.158 37.6852 112.158 38.3334V41.1528H111.381V38.4306C111.381 37.9769 111.244 37.6107 110.972 37.332C110.693 37.0598 110.327 36.9237 109.874 36.9237C109.42 36.9237 109.054 37.0598 108.775 37.332C108.503 37.6107 108.367 37.9769 108.367 38.4306V41.1528H107.589V36.2917H108.367ZM117.59 39.2084H118.388C118.29 39.8371 118.015 40.3329 117.561 40.6959C117.108 41.0653 116.537 41.2501 115.85 41.2501C115.072 41.2501 114.447 41.02 113.974 40.5598C113.507 40.0996 113.274 39.4871 113.274 38.7223C113.274 37.9575 113.507 37.345 113.974 36.8848C114.447 36.4246 115.072 36.1945 115.85 36.1945C116.537 36.1945 117.108 36.3792 117.561 36.7487C118.015 37.1116 118.29 37.6075 118.388 38.2362H117.59C117.5 37.8278 117.302 37.507 116.997 37.2737C116.686 37.0403 116.304 36.9237 115.85 36.9237C115.306 36.9237 114.868 37.0857 114.538 37.4098C114.214 37.7403 114.051 38.1778 114.051 38.7223C114.051 39.2667 114.214 39.701 114.538 40.0251C114.868 40.3556 115.306 40.5209 115.85 40.5209C116.304 40.5209 116.686 40.4042 116.997 40.1709C117.302 39.9376 117.5 39.6167 117.59 39.2084ZM123.399 36.2917H124.225L121.279 43.0973H120.453L121.289 41.1723L119.17 36.2917H119.996L121.697 40.2195L123.399 36.2917Z" fill="#111111" fill-opacity="0.8"/>
</svg>
