<svg width="129" height="44" viewBox="0 0 129 44" fill="none" xmlns="http://www.w3.org/2000/svg">
<mask id="path-1-outside-1_2299_42650" maskUnits="userSpaceOnUse" x="30.8008" y="28.3999" width="98" height="16" fill="black">
<rect fill="white" x="30.8008" y="28.3999" width="98" height="16"/>
<path d="M33.2454 39.1038C33.8032 39.6069 34.6509 39.8585 35.7884 39.8585C36.926 39.8585 37.7737 39.6069 38.3315 39.1038C38.8893 38.5897 39.1682 37.6709 39.1682 36.3474C39.1682 34.9911 38.8893 34.0505 38.3315 33.5255C37.7737 33.0004 36.926 32.7379 35.7884 32.7379C34.6509 32.7379 33.8032 33.0004 33.2454 33.5255C32.6985 34.0395 32.4251 34.9802 32.4251 36.3474C32.4251 37.6709 32.6985 38.5897 33.2454 39.1038ZM35.7884 31.9504C37.2213 31.9504 38.2877 32.2895 38.9878 32.9676C39.6987 33.6348 40.0542 34.7614 40.0542 36.3474C40.0542 37.8897 39.6987 38.9944 38.9878 39.6616C38.2877 40.3179 37.2213 40.646 35.7884 40.646C34.3665 40.646 33.3001 40.3179 32.5891 39.6616C31.8782 38.9944 31.5227 37.8897 31.5227 36.3474C31.5227 34.7614 31.8782 33.6348 32.5891 32.9676C33.3001 32.2895 34.3665 31.9504 35.7884 31.9504ZM46.4918 40.646C44.7746 40.646 43.6698 40.028 43.1776 38.792H43.0464V43.3531H42.144V32.1965H43.0464V33.8044H43.1776C43.6698 32.5684 44.7746 31.9504 46.4918 31.9504C47.8372 31.9504 48.8216 32.2731 49.445 32.9184C50.0685 33.5637 50.3802 34.6958 50.3802 36.3146C50.3802 37.9115 50.0685 39.0327 49.445 39.678C48.8216 40.3233 47.8372 40.646 46.4918 40.646ZM46.2129 32.7215C44.1566 32.7215 43.1011 33.602 43.0464 35.363V37.0693C43.0464 37.6272 43.1339 38.0975 43.3089 38.4803C43.4839 38.8631 43.7245 39.153 44.0308 39.3499C44.348 39.5467 44.6816 39.6835 45.0316 39.76C45.3816 39.8366 45.7754 39.8749 46.2129 39.8749C47.4051 39.8749 48.2473 39.6288 48.7395 39.1366C49.2427 38.6444 49.4943 37.7037 49.4943 36.3146C49.4943 34.9146 49.2427 33.9684 48.7395 33.4762C48.2473 32.9731 47.4051 32.7215 46.2129 32.7215ZM53.8974 39.1038C54.4553 39.6069 55.3029 39.8585 56.4405 39.8585C57.578 39.8585 58.4257 39.6069 58.9835 39.1038C59.5414 38.5897 59.8203 37.6709 59.8203 36.3474C59.8203 34.9911 59.5414 34.0505 58.9835 33.5255C58.4257 33.0004 57.578 32.7379 56.4405 32.7379C55.3029 32.7379 54.4553 33.0004 53.8974 33.5255C53.3505 34.0395 53.0771 34.9802 53.0771 36.3474C53.0771 37.6709 53.3505 38.5897 53.8974 39.1038ZM56.4405 31.9504C57.8733 31.9504 58.9398 32.2895 59.6398 32.9676C60.3508 33.6348 60.7062 34.7614 60.7062 36.3474C60.7062 37.8897 60.3508 38.9944 59.6398 39.6616C58.9398 40.3179 57.8733 40.646 56.4405 40.646C55.0186 40.646 53.9521 40.3179 53.2412 39.6616C52.5302 38.9944 52.1747 37.8897 52.1747 36.3474C52.1747 34.7614 52.5302 33.6348 53.2412 32.9676C53.9521 32.2895 55.0186 31.9504 56.4405 31.9504ZM63.7148 29.0792V40.3999H62.8125V29.0792H63.7148ZM72.5858 40.3999V34.756C72.5858 34.0122 72.3725 33.4872 71.9459 33.1809C71.5303 32.8747 70.8521 32.7215 69.9115 32.7215C68.0083 32.7215 67.0293 33.5802 66.9747 35.2974V40.3999H66.0723V32.1965H66.9747V33.7552H67.1059C67.5544 32.552 68.588 31.9504 70.2068 31.9504C71.3006 31.9504 72.1209 32.1637 72.6678 32.5903C73.2256 33.0169 73.5046 33.7387 73.5046 34.756V40.3999H72.5858ZM83.8284 35.9865V36.6099H76.4125C76.4235 37.8131 76.7079 38.6553 77.2657 39.1366C77.8344 39.6178 78.6712 39.8585 79.7759 39.8585C80.6947 39.8585 81.4166 39.7053 81.9416 39.3991C82.4776 39.0928 82.8002 38.5678 82.9096 37.824H83.812C83.5604 39.7053 82.2151 40.646 79.7759 40.646C78.354 40.646 77.2876 40.3179 76.5766 39.6616C75.8656 38.9944 75.5102 37.8897 75.5102 36.3474C75.5102 34.7614 75.8656 33.6348 76.5766 32.9676C77.2876 32.2895 78.3485 31.9504 79.7595 31.9504C81.1158 31.9504 82.133 32.2785 82.8112 32.9348C83.4893 33.5911 83.8284 34.6083 83.8284 35.9865ZM79.7595 32.7379C78.6985 32.7379 77.8891 32.9676 77.3313 33.427C76.7735 33.8864 76.4727 34.7013 76.4289 35.8716H82.9096C82.9096 34.7122 82.6471 33.9028 82.1221 33.4434C81.5971 32.9731 80.8095 32.7379 79.7595 32.7379ZM92.4047 40.3999V34.756C92.4047 34.0122 92.1914 33.4872 91.7648 33.1809C91.3491 32.8747 90.671 32.7215 89.7303 32.7215C87.8272 32.7215 86.8482 33.5802 86.7935 35.2974V40.3999H85.8912V32.1965H86.7935V33.7552H86.9248C87.3732 32.552 88.4069 31.9504 90.0257 31.9504C91.1195 31.9504 91.9398 32.1637 92.4867 32.5903C93.0445 33.0169 93.3234 33.7387 93.3234 34.756V40.3999H92.4047ZM95.69 32.1965H96.5924V40.3999H95.69V32.1965ZM96.658 30.6871H95.6408V29.112H96.658V30.6871ZM107.068 35.9865V36.6099H99.6518C99.6628 37.8131 99.9472 38.6553 100.505 39.1366C101.074 39.6178 101.911 39.8585 103.015 39.8585C103.934 39.8585 104.656 39.7053 105.181 39.3991C105.717 39.0928 106.04 38.5678 106.149 37.824H107.051C106.8 39.7053 105.454 40.646 103.015 40.646C101.593 40.646 100.527 40.3179 99.8159 39.6616C99.1049 38.9944 98.7495 37.8897 98.7495 36.3474C98.7495 34.7614 99.1049 33.6348 99.8159 32.9676C100.527 32.2895 101.588 31.9504 102.999 31.9504C104.355 31.9504 105.372 32.2785 106.05 32.9348C106.729 33.5911 107.068 34.6083 107.068 35.9865ZM102.999 32.7379C101.938 32.7379 101.128 32.9676 100.571 33.427C100.013 33.8864 99.712 34.7013 99.6682 35.8716H106.149C106.149 34.7122 105.886 33.9028 105.361 33.4434C104.836 32.9731 104.049 32.7379 102.999 32.7379ZM110.377 40.3999H109.147V38.5623H110.377V40.3999ZM113.645 29.0792V40.3999H112.759V29.0792H113.645ZM113.957 36.5279L118.42 32.1965H119.617L115.614 35.9865L119.765 40.3999H118.6L115.023 36.5279H113.957ZM120.456 40.3999V39.8585L126.28 32.984H120.816V32.1965H127.543V32.6723L121.67 39.6124H127.789V40.3999H120.456Z"/>
</mask>
<path d="M33.2454 39.1038C33.8032 39.6069 34.6509 39.8585 35.7884 39.8585C36.926 39.8585 37.7737 39.6069 38.3315 39.1038C38.8893 38.5897 39.1682 37.6709 39.1682 36.3474C39.1682 34.9911 38.8893 34.0505 38.3315 33.5255C37.7737 33.0004 36.926 32.7379 35.7884 32.7379C34.6509 32.7379 33.8032 33.0004 33.2454 33.5255C32.6985 34.0395 32.4251 34.9802 32.4251 36.3474C32.4251 37.6709 32.6985 38.5897 33.2454 39.1038ZM35.7884 31.9504C37.2213 31.9504 38.2877 32.2895 38.9878 32.9676C39.6987 33.6348 40.0542 34.7614 40.0542 36.3474C40.0542 37.8897 39.6987 38.9944 38.9878 39.6616C38.2877 40.3179 37.2213 40.646 35.7884 40.646C34.3665 40.646 33.3001 40.3179 32.5891 39.6616C31.8782 38.9944 31.5227 37.8897 31.5227 36.3474C31.5227 34.7614 31.8782 33.6348 32.5891 32.9676C33.3001 32.2895 34.3665 31.9504 35.7884 31.9504ZM46.4918 40.646C44.7746 40.646 43.6698 40.028 43.1776 38.792H43.0464V43.3531H42.144V32.1965H43.0464V33.8044H43.1776C43.6698 32.5684 44.7746 31.9504 46.4918 31.9504C47.8372 31.9504 48.8216 32.2731 49.445 32.9184C50.0685 33.5637 50.3802 34.6958 50.3802 36.3146C50.3802 37.9115 50.0685 39.0327 49.445 39.678C48.8216 40.3233 47.8372 40.646 46.4918 40.646ZM46.2129 32.7215C44.1566 32.7215 43.1011 33.602 43.0464 35.363V37.0693C43.0464 37.6272 43.1339 38.0975 43.3089 38.4803C43.4839 38.8631 43.7245 39.153 44.0308 39.3499C44.348 39.5467 44.6816 39.6835 45.0316 39.76C45.3816 39.8366 45.7754 39.8749 46.2129 39.8749C47.4051 39.8749 48.2473 39.6288 48.7395 39.1366C49.2427 38.6444 49.4943 37.7037 49.4943 36.3146C49.4943 34.9146 49.2427 33.9684 48.7395 33.4762C48.2473 32.9731 47.4051 32.7215 46.2129 32.7215ZM53.8974 39.1038C54.4553 39.6069 55.3029 39.8585 56.4405 39.8585C57.578 39.8585 58.4257 39.6069 58.9835 39.1038C59.5414 38.5897 59.8203 37.6709 59.8203 36.3474C59.8203 34.9911 59.5414 34.0505 58.9835 33.5255C58.4257 33.0004 57.578 32.7379 56.4405 32.7379C55.3029 32.7379 54.4553 33.0004 53.8974 33.5255C53.3505 34.0395 53.0771 34.9802 53.0771 36.3474C53.0771 37.6709 53.3505 38.5897 53.8974 39.1038ZM56.4405 31.9504C57.8733 31.9504 58.9398 32.2895 59.6398 32.9676C60.3508 33.6348 60.7062 34.7614 60.7062 36.3474C60.7062 37.8897 60.3508 38.9944 59.6398 39.6616C58.9398 40.3179 57.8733 40.646 56.4405 40.646C55.0186 40.646 53.9521 40.3179 53.2412 39.6616C52.5302 38.9944 52.1747 37.8897 52.1747 36.3474C52.1747 34.7614 52.5302 33.6348 53.2412 32.9676C53.9521 32.2895 55.0186 31.9504 56.4405 31.9504ZM63.7148 29.0792V40.3999H62.8125V29.0792H63.7148ZM72.5858 40.3999V34.756C72.5858 34.0122 72.3725 33.4872 71.9459 33.1809C71.5303 32.8747 70.8521 32.7215 69.9115 32.7215C68.0083 32.7215 67.0293 33.5802 66.9747 35.2974V40.3999H66.0723V32.1965H66.9747V33.7552H67.1059C67.5544 32.552 68.588 31.9504 70.2068 31.9504C71.3006 31.9504 72.1209 32.1637 72.6678 32.5903C73.2256 33.0169 73.5046 33.7387 73.5046 34.756V40.3999H72.5858ZM83.8284 35.9865V36.6099H76.4125C76.4235 37.8131 76.7079 38.6553 77.2657 39.1366C77.8344 39.6178 78.6712 39.8585 79.7759 39.8585C80.6947 39.8585 81.4166 39.7053 81.9416 39.3991C82.4776 39.0928 82.8002 38.5678 82.9096 37.824H83.812C83.5604 39.7053 82.2151 40.646 79.7759 40.646C78.354 40.646 77.2876 40.3179 76.5766 39.6616C75.8656 38.9944 75.5102 37.8897 75.5102 36.3474C75.5102 34.7614 75.8656 33.6348 76.5766 32.9676C77.2876 32.2895 78.3485 31.9504 79.7595 31.9504C81.1158 31.9504 82.133 32.2785 82.8112 32.9348C83.4893 33.5911 83.8284 34.6083 83.8284 35.9865ZM79.7595 32.7379C78.6985 32.7379 77.8891 32.9676 77.3313 33.427C76.7735 33.8864 76.4727 34.7013 76.4289 35.8716H82.9096C82.9096 34.7122 82.6471 33.9028 82.1221 33.4434C81.5971 32.9731 80.8095 32.7379 79.7595 32.7379ZM92.4047 40.3999V34.756C92.4047 34.0122 92.1914 33.4872 91.7648 33.1809C91.3491 32.8747 90.671 32.7215 89.7303 32.7215C87.8272 32.7215 86.8482 33.5802 86.7935 35.2974V40.3999H85.8912V32.1965H86.7935V33.7552H86.9248C87.3732 32.552 88.4069 31.9504 90.0257 31.9504C91.1195 31.9504 91.9398 32.1637 92.4867 32.5903C93.0445 33.0169 93.3234 33.7387 93.3234 34.756V40.3999H92.4047ZM95.69 32.1965H96.5924V40.3999H95.69V32.1965ZM96.658 30.6871H95.6408V29.112H96.658V30.6871ZM107.068 35.9865V36.6099H99.6518C99.6628 37.8131 99.9472 38.6553 100.505 39.1366C101.074 39.6178 101.911 39.8585 103.015 39.8585C103.934 39.8585 104.656 39.7053 105.181 39.3991C105.717 39.0928 106.04 38.5678 106.149 37.824H107.051C106.8 39.7053 105.454 40.646 103.015 40.646C101.593 40.646 100.527 40.3179 99.8159 39.6616C99.1049 38.9944 98.7495 37.8897 98.7495 36.3474C98.7495 34.7614 99.1049 33.6348 99.8159 32.9676C100.527 32.2895 101.588 31.9504 102.999 31.9504C104.355 31.9504 105.372 32.2785 106.05 32.9348C106.729 33.5911 107.068 34.6083 107.068 35.9865ZM102.999 32.7379C101.938 32.7379 101.128 32.9676 100.571 33.427C100.013 33.8864 99.712 34.7013 99.6682 35.8716H106.149C106.149 34.7122 105.886 33.9028 105.361 33.4434C104.836 32.9731 104.049 32.7379 102.999 32.7379ZM110.377 40.3999H109.147V38.5623H110.377V40.3999ZM113.645 29.0792V40.3999H112.759V29.0792H113.645ZM113.957 36.5279L118.42 32.1965H119.617L115.614 35.9865L119.765 40.3999H118.6L115.023 36.5279H113.957ZM120.456 40.3999V39.8585L126.28 32.984H120.816V32.1965H127.543V32.6723L121.67 39.6124H127.789V40.3999H120.456Z" fill="white"/>
<path d="M33.2454 39.1038L33.0008 39.3639L33.0063 39.3689L33.2454 39.1038ZM38.3315 39.1038L38.5706 39.3689L38.5734 39.3663L38.3315 39.1038ZM38.3315 33.5255L38.5762 33.2655L38.5762 33.2655L38.3315 33.5255ZM33.2454 33.5255L33.4899 33.7856L33.4901 33.7854L33.2454 33.5255ZM38.9878 32.9676L38.7393 33.2241L38.7435 33.228L38.9878 32.9676ZM38.9878 39.6616L39.2319 39.922L39.2321 39.9219L38.9878 39.6616ZM32.5891 39.6616L32.3448 39.9219L32.347 39.9239L32.5891 39.6616ZM32.5891 32.9676L32.8334 33.228L32.8355 33.226L32.5891 32.9676ZM33.2454 39.1038L33.0063 39.3689C33.6564 39.9552 34.6066 40.2155 35.7884 40.2155V39.8585V39.5015C34.6952 39.5015 33.9501 39.2586 33.4845 38.8387L33.2454 39.1038ZM35.7884 39.8585V40.2155C36.9703 40.2155 37.9205 39.9552 38.5706 39.3689L38.3315 39.1038L38.0924 38.8387C37.6268 39.2586 36.8817 39.5015 35.7884 39.5015V39.8585ZM38.3315 39.1038L38.5734 39.3663C39.2436 38.7486 39.5252 37.701 39.5252 36.3474H39.1682H38.8112C38.8112 37.6408 38.535 38.4307 38.0896 38.8412L38.3315 39.1038ZM39.1682 36.3474H39.5252C39.5252 34.9631 39.2445 33.8945 38.5762 33.2655L38.3315 33.5255L38.0868 33.7854C38.5342 34.2065 38.8112 35.0191 38.8112 36.3474H39.1682ZM38.3315 33.5255L38.5762 33.2655C37.9261 32.6537 36.9736 32.3809 35.7884 32.3809V32.7379V33.0949C36.8784 33.0949 37.6212 33.3472 38.0868 33.7854L38.3315 33.5255ZM35.7884 32.7379V32.3809C34.6033 32.3809 33.6507 32.6537 33.0007 33.2655L33.2454 33.5255L33.4901 33.7854C33.9557 33.3472 34.6985 33.0949 35.7884 33.0949V32.7379ZM33.2454 33.5255L33.0009 33.2653C32.3418 33.8848 32.0681 34.9559 32.0681 36.3474H32.4251H32.7821C32.7821 35.0045 33.0552 34.1942 33.4899 33.7856L33.2454 33.5255ZM32.4251 36.3474H32.0681C32.0681 37.6994 32.3436 38.746 33.0009 39.3639L33.2454 39.1038L33.4899 38.8436C33.0534 38.4334 32.7821 37.6424 32.7821 36.3474H32.4251ZM35.7884 31.9504V32.3074C37.1718 32.3074 38.1316 32.6353 38.7394 33.224L38.9878 32.9676L39.2362 32.7112C38.4439 31.9437 37.2708 31.5934 35.7884 31.5934V31.9504ZM38.9878 32.9676L38.7435 33.228C39.3483 33.7955 39.6972 34.8004 39.6972 36.3474H40.0542H40.4112C40.4112 34.7225 40.0492 33.4741 39.2321 32.7073L38.9878 32.9676ZM40.0542 36.3474H39.6972C39.6972 37.8471 39.3499 38.8321 38.7435 39.4013L38.9878 39.6616L39.2321 39.9219C40.0475 39.1566 40.4112 37.9323 40.4112 36.3474H40.0542ZM38.9878 39.6616L38.7436 39.4012C38.136 39.9708 37.1745 40.289 35.7884 40.289V40.646V41.003C37.2681 41.003 38.4395 40.665 39.2319 39.922L38.9878 39.6616ZM35.7884 40.646V40.289C34.4148 40.289 33.4511 39.9714 32.8313 39.3993L32.5891 39.6616L32.347 39.9239C33.1491 40.6643 34.3183 41.003 35.7884 41.003V40.646ZM32.5891 39.6616L32.8334 39.4013C32.227 38.8321 31.8797 37.8471 31.8797 36.3474H31.5227H31.1657C31.1657 37.9323 31.5294 39.1566 32.3448 39.9219L32.5891 39.6616ZM31.5227 36.3474H31.8797C31.8797 34.8004 32.2286 33.7955 32.8334 33.228L32.5891 32.9676L32.3448 32.7073C31.5277 33.4741 31.1657 34.7225 31.1657 36.3474H31.5227ZM32.5891 32.9676L32.8355 33.226C33.4555 32.6346 34.4174 32.3074 35.7884 32.3074V31.9504V31.5934C34.3156 31.5934 33.1447 31.9443 32.3427 32.7093L32.5891 32.9676ZM43.1776 38.792L43.5093 38.66L43.4197 38.435H43.1776V38.792ZM43.0464 38.792V38.435H42.6894V38.792H43.0464ZM43.0464 43.3531V43.7101H43.4034V43.3531H43.0464ZM42.144 43.3531H41.787V43.7101H42.144V43.3531ZM42.144 32.1965V31.8395H41.787V32.1965H42.144ZM43.0464 32.1965H43.4034V31.8395H43.0464V32.1965ZM43.0464 33.8044H42.6894V34.1614H43.0464V33.8044ZM43.1776 33.8044V34.1614H43.4197L43.5093 33.9365L43.1776 33.8044ZM49.445 32.9184L49.7018 32.6704L49.7018 32.6704L49.445 32.9184ZM49.445 39.678L49.7018 39.9261L49.7018 39.9261L49.445 39.678ZM43.0464 35.363L42.6894 35.3519V35.363H43.0464ZM43.3089 38.4803L42.9842 38.6287L42.9842 38.6287L43.3089 38.4803ZM44.0308 39.3499L43.8377 39.6502L43.8425 39.6532L44.0308 39.3499ZM45.0316 39.76L44.9553 40.1088L44.9553 40.1088L45.0316 39.76ZM48.7395 39.1366L48.4899 38.8814L48.4871 38.8841L48.7395 39.1366ZM48.7395 33.4762L48.4843 33.7259L48.4899 33.7314L48.7395 33.4762ZM46.4918 40.646V40.289C45.6734 40.289 45.0331 40.1414 44.5496 39.8709C44.0726 39.6041 43.7268 39.206 43.5093 38.66L43.1776 38.792L42.846 38.9241C43.1207 39.614 43.5734 40.1429 44.2011 40.4941C44.8223 40.8416 45.593 41.003 46.4918 41.003V40.646ZM43.1776 38.792V38.435H43.0464V38.792V39.149H43.1776V38.792ZM43.0464 38.792H42.6894V43.3531H43.0464H43.4034V38.792H43.0464ZM43.0464 43.3531V42.9961H42.144V43.3531V43.7101H43.0464V43.3531ZM42.144 43.3531H42.501V32.1965H42.144H41.787V43.3531H42.144ZM42.144 32.1965V32.5535H43.0464V32.1965V31.8395H42.144V32.1965ZM43.0464 32.1965H42.6894V33.8044H43.0464H43.4034V32.1965H43.0464ZM43.0464 33.8044V34.1614H43.1776V33.8044V33.4474H43.0464V33.8044ZM43.1776 33.8044L43.5093 33.9365C43.7268 33.3904 44.0726 32.9923 44.5496 32.7255C45.0331 32.455 45.6734 32.3074 46.4918 32.3074V31.9504V31.5934C45.593 31.5934 44.8223 31.7548 44.2011 32.1023C43.5734 32.4535 43.1207 32.9824 42.846 33.6723L43.1776 33.8044ZM46.4918 31.9504V32.3074C47.7884 32.3074 48.6594 32.619 49.1883 33.1665L49.445 32.9184L49.7018 32.6704C48.9837 31.9271 47.886 31.5934 46.4918 31.5934V31.9504ZM49.445 32.9184L49.1883 33.1665C49.7122 33.7088 50.0232 34.7208 50.0232 36.3146H50.3802H50.7372C50.7372 34.6708 50.4247 33.4187 49.7018 32.6704L49.445 32.9184ZM50.3802 36.3146H50.0232C50.0232 37.8849 49.7129 38.887 49.1883 39.43L49.445 39.678L49.7018 39.9261C50.4241 39.1784 50.7372 37.9382 50.7372 36.3146H50.3802ZM49.445 39.678L49.1883 39.43C48.6594 39.9774 47.7884 40.289 46.4918 40.289V40.646V41.003C47.886 41.003 48.9837 40.6693 49.7018 39.9261L49.445 39.678ZM46.2129 32.7215V32.3645C45.1411 32.3645 44.2674 32.593 43.6504 33.1078C43.0234 33.6307 42.7191 34.4002 42.6896 35.3519L43.0464 35.363L43.4032 35.3741C43.4284 34.5649 43.6791 34.0136 44.1077 33.656C44.5461 33.2903 45.2284 33.0785 46.2129 33.0785V32.7215ZM43.0464 35.363H42.6894V37.0693H43.0464H43.4034V35.363H43.0464ZM43.0464 37.0693H42.6894C42.6894 37.6625 42.7822 38.1868 42.9842 38.6287L43.3089 38.4803L43.6336 38.3319C43.4856 38.0082 43.4034 37.5918 43.4034 37.0693H43.0464ZM43.3089 38.4803L42.9842 38.6287C43.1831 39.0638 43.4654 39.4108 43.8377 39.6502L44.0308 39.3499L44.2238 39.0496C43.9836 38.8952 43.7847 38.6625 43.6336 38.3319L43.3089 38.4803ZM44.0308 39.3499L43.8425 39.6532C44.1927 39.8706 44.564 40.0232 44.9553 40.1088L45.0316 39.76L45.1079 39.4113C44.7992 39.3438 44.5033 39.2229 44.2191 39.0465L44.0308 39.3499ZM45.0316 39.76L44.9553 40.1088C45.3352 40.1919 45.7551 40.2319 46.2129 40.2319V39.8749V39.5179C45.7956 39.5179 45.4281 39.4813 45.1079 39.4113L45.0316 39.76ZM46.2129 39.8749V40.2319C47.4368 40.2319 48.3986 39.9824 48.992 39.389L48.7395 39.1366L48.4871 38.8841C48.0961 39.2751 47.3735 39.5179 46.2129 39.5179V39.8749ZM48.7395 39.1366L48.9892 39.3918C49.6031 38.7912 49.8513 37.7178 49.8513 36.3146H49.4943H49.1373C49.1373 37.6896 48.8822 38.4976 48.4899 38.8814L48.7395 39.1366ZM49.4943 36.3146H49.8513C49.8513 34.9014 49.6035 33.822 48.9892 33.221L48.7395 33.4762L48.4899 33.7314C48.8819 34.1149 49.1373 34.9277 49.1373 36.3146H49.4943ZM48.7395 33.4762L48.9947 33.2266C48.4015 32.6201 47.4384 32.3645 46.2129 32.3645V32.7215V33.0785C47.3719 33.0785 48.0932 33.3261 48.4843 33.7259L48.7395 33.4762ZM53.8974 39.1038L53.6529 39.3639L53.6583 39.3689L53.8974 39.1038ZM58.9835 39.1038L59.2226 39.3689L59.2255 39.3663L58.9835 39.1038ZM58.9835 33.5255L59.2282 33.2655L59.2282 33.2655L58.9835 33.5255ZM53.8974 33.5255L54.1419 33.7856L54.1421 33.7854L53.8974 33.5255ZM59.6398 32.9676L59.3914 33.2241L59.3955 33.228L59.6398 32.9676ZM59.6398 39.6616L59.884 39.922L59.8841 39.9219L59.6398 39.6616ZM53.2412 39.6616L52.9968 39.9219L52.999 39.9239L53.2412 39.6616ZM53.2412 32.9676L53.4855 33.228L53.4876 33.226L53.2412 32.9676ZM53.8974 39.1038L53.6583 39.3689C54.3084 39.9552 55.2587 40.2155 56.4405 40.2155V39.8585V39.5015C55.3472 39.5015 54.6021 39.2586 54.1365 38.8387L53.8974 39.1038ZM56.4405 39.8585V40.2155C57.6223 40.2155 58.5726 39.9552 59.2226 39.3689L58.9835 39.1038L58.7444 38.8387C58.2788 39.2586 57.5337 39.5015 56.4405 39.5015V39.8585ZM58.9835 39.1038L59.2255 39.3663C59.8957 38.7486 60.1773 37.701 60.1773 36.3474H59.8203H59.4633C59.4633 37.6408 59.1871 38.4307 58.7416 38.8412L58.9835 39.1038ZM59.8203 36.3474H60.1773C60.1773 34.9631 59.8965 33.8945 59.2282 33.2655L58.9835 33.5255L58.7389 33.7854C59.1862 34.2065 59.4633 35.0191 59.4633 36.3474H59.8203ZM58.9835 33.5255L59.2282 33.2655C58.5782 32.6537 57.6256 32.3809 56.4405 32.3809V32.7379V33.0949C57.5304 33.0949 58.2732 33.3472 58.7389 33.7854L58.9835 33.5255ZM56.4405 32.7379V32.3809C55.2554 32.3809 54.3028 32.6537 53.6528 33.2655L53.8974 33.5255L54.1421 33.7854C54.6077 33.3472 55.3505 33.0949 56.4405 33.0949V32.7379ZM53.8974 33.5255L53.6529 33.2653C52.9939 33.8848 52.7201 34.9559 52.7201 36.3474H53.0771H53.4341C53.4341 35.0045 53.7072 34.1942 54.1419 33.7856L53.8974 33.5255ZM53.0771 36.3474H52.7201C52.7201 37.6994 52.9956 38.746 53.6529 39.3639L53.8974 39.1038L54.1419 38.8436C53.7055 38.4334 53.4341 37.6424 53.4341 36.3474H53.0771ZM56.4405 31.9504V32.3074C57.8238 32.3074 58.7836 32.6353 59.3914 33.224L59.6398 32.9676L59.8882 32.7112C59.0959 31.9437 57.9228 31.5934 56.4405 31.5934V31.9504ZM59.6398 32.9676L59.3955 33.228C60.0003 33.7955 60.3492 34.8004 60.3492 36.3474H60.7062H61.0632C61.0632 34.7225 60.7012 33.4741 59.8841 32.7073L59.6398 32.9676ZM60.7062 36.3474H60.3492C60.3492 37.8471 60.002 38.8321 59.3955 39.4013L59.6398 39.6616L59.8841 39.9219C60.6996 39.1566 61.0632 37.9323 61.0632 36.3474H60.7062ZM59.6398 39.6616L59.3956 39.4012C58.788 39.9708 57.8265 40.289 56.4405 40.289V40.646V41.003C57.9202 41.003 59.0915 40.665 59.884 39.922L59.6398 39.6616ZM56.4405 40.646V40.289C55.0668 40.289 54.1031 39.9714 53.4833 39.3993L53.2412 39.6616L52.999 39.9239C53.8011 40.6643 54.9703 41.003 56.4405 41.003V40.646ZM53.2412 39.6616L53.4855 39.4013C52.879 38.8321 52.5317 37.8471 52.5317 36.3474H52.1747H51.8177C51.8177 37.9323 52.1814 39.1566 52.9969 39.9219L53.2412 39.6616ZM52.1747 36.3474H52.5317C52.5317 34.8004 52.8806 33.7955 53.4855 33.228L53.2412 32.9676L52.9969 32.7073C52.1798 33.4741 51.8177 34.7225 51.8177 36.3474H52.1747ZM53.2412 32.9676L53.4876 33.226C54.1075 32.6346 55.0695 32.3074 56.4405 32.3074V31.9504V31.5934C54.9676 31.5934 53.7967 31.9443 52.9948 32.7093L53.2412 32.9676ZM63.7148 29.0792H64.0718V28.7222H63.7148V29.0792ZM63.7148 40.3999V40.7569H64.0718V40.3999H63.7148ZM62.8125 40.3999H62.4555V40.7569H62.8125V40.3999ZM62.8125 29.0792V28.7222H62.4555V29.0792H62.8125ZM63.7148 29.0792H63.3578V40.3999H63.7148H64.0718V29.0792H63.7148ZM63.7148 40.3999V40.0429H62.8125V40.3999V40.7569H63.7148V40.3999ZM62.8125 40.3999H63.1695V29.0792H62.8125H62.4555V40.3999H62.8125ZM62.8125 29.0792V29.4362H63.7148V29.0792V28.7222H62.8125V29.0792ZM72.5858 40.3999H72.2288V40.7569H72.5858V40.3999ZM71.9459 33.1809L71.7341 33.4683L71.7377 33.4709L71.9459 33.1809ZM66.9747 35.2974L66.6177 35.286V35.2974H66.9747ZM66.9747 40.3999V40.7569H67.3317V40.3999H66.9747ZM66.0723 40.3999H65.7153V40.7569H66.0723V40.3999ZM66.0723 32.1965V31.8395H65.7153V32.1965H66.0723ZM66.9747 32.1965H67.3317V31.8395H66.9747V32.1965ZM66.9747 33.7552H66.6177V34.1122H66.9747V33.7552ZM67.1059 33.7552V34.1122H67.3538L67.4404 33.8798L67.1059 33.7552ZM72.6678 32.5903L72.4482 32.8718L72.4509 32.8739L72.6678 32.5903ZM73.5046 40.3999V40.7569H73.8616V40.3999H73.5046ZM72.5858 40.3999H72.9428V34.756H72.5858H72.2288V40.3999H72.5858ZM72.5858 34.756H72.9428C72.9428 33.9484 72.7091 33.2894 72.1541 32.8909L71.9459 33.1809L71.7377 33.4709C72.0359 33.685 72.2288 34.076 72.2288 34.756H72.5858ZM71.9459 33.1809L72.1577 32.8935C71.6478 32.5178 70.8737 32.3645 69.9115 32.3645V32.7215V33.0785C70.8306 33.0785 71.4127 33.2315 71.7341 33.4683L71.9459 33.1809ZM69.9115 32.7215V32.3645C68.9124 32.3645 68.0935 32.5893 67.5145 33.0971C66.929 33.6106 66.6473 34.3617 66.6178 35.286L66.9747 35.2974L67.3315 35.3088C67.3567 34.5158 67.5918 33.979 67.9853 33.6339C68.3852 33.2831 69.0073 33.0785 69.9115 33.0785V32.7215ZM66.9747 35.2974H66.6177V40.3999H66.9747H67.3317V35.2974H66.9747ZM66.9747 40.3999V40.0429H66.0723V40.3999V40.7569H66.9747V40.3999ZM66.0723 40.3999H66.4293V32.1965H66.0723H65.7153V40.3999H66.0723ZM66.0723 32.1965V32.5535H66.9747V32.1965V31.8395H66.0723V32.1965ZM66.9747 32.1965H66.6177V33.7552H66.9747H67.3317V32.1965H66.9747ZM66.9747 33.7552V34.1122H67.1059V33.7552V33.3982H66.9747V33.7552ZM67.1059 33.7552L67.4404 33.8798C67.6381 33.3495 67.957 32.9662 68.397 32.7101C68.8434 32.4504 69.439 32.3074 70.2068 32.3074V31.9504V31.5934C69.3558 31.5934 68.6252 31.7512 68.0379 32.0931C67.4443 32.4385 67.0222 32.9577 66.7714 33.6305L67.1059 33.7552ZM70.2068 31.9504V32.3074C71.264 32.3074 71.9911 32.5152 72.4482 32.8718L72.6678 32.5903L72.8874 32.3088C72.2507 31.8122 71.3372 31.5934 70.2068 31.5934V31.9504ZM72.6678 32.5903L72.4509 32.8739C72.8859 33.2065 73.1476 33.7977 73.1476 34.756H73.5046H73.8616C73.8616 33.6798 73.5654 32.8272 72.8847 32.3067L72.6678 32.5903ZM73.5046 34.756H73.1476V40.3999H73.5046H73.8616V34.756H73.5046ZM73.5046 40.3999V40.0429H72.5858V40.3999V40.7569H73.5046V40.3999ZM83.8284 36.6099V36.9669H84.1854V36.6099H83.8284ZM76.4125 36.6099V36.2529H76.0523L76.0555 36.6132L76.4125 36.6099ZM77.2657 39.1366L77.0325 39.4069L77.0351 39.4091L77.2657 39.1366ZM81.9416 39.3991L81.7645 39.0891L81.7617 39.0907L81.9416 39.3991ZM82.9096 37.824V37.467H82.6013L82.5564 37.7721L82.9096 37.824ZM83.812 37.824L84.1658 37.8714L84.2199 37.467H83.812V37.824ZM76.5766 39.6616L76.3323 39.9219L76.3345 39.9239L76.5766 39.6616ZM76.5766 32.9676L76.8209 33.228L76.823 33.226L76.5766 32.9676ZM82.8112 32.9348L82.5629 33.1914L82.8112 32.9348ZM77.3313 33.427L77.1044 33.1514L77.1044 33.1514L77.3313 33.427ZM76.4289 35.8716L76.0722 35.8583L76.0583 36.2286H76.4289V35.8716ZM82.9096 35.8716V36.2286H83.2666V35.8716H82.9096ZM82.1221 33.4434L81.8839 33.7094L81.887 33.7121L82.1221 33.4434ZM83.8284 35.9865H83.4714V36.6099H83.8284H84.1854V35.9865H83.8284ZM83.8284 36.6099V36.2529H76.4125V36.6099V36.9669H83.8284V36.6099ZM76.4125 36.6099L76.0555 36.6132C76.0668 37.8557 76.3592 38.8261 77.0325 39.4069L77.2657 39.1366L77.4989 38.8663C77.0565 38.4846 76.7801 37.7705 76.7695 36.6067L76.4125 36.6099ZM77.2657 39.1366L77.0351 39.4091C77.6931 39.9659 78.6263 40.2155 79.7759 40.2155V39.8585V39.5015C78.7161 39.5015 77.9758 39.2698 77.4963 38.8641L77.2657 39.1366ZM79.7759 39.8585V40.2155C80.728 40.2155 81.5208 40.0578 82.1215 39.7075L81.9416 39.3991L81.7617 39.0907C81.3123 39.3529 80.6614 39.5015 79.7759 39.5015V39.8585ZM81.9416 39.3991L82.1187 39.7091C82.7708 39.3365 83.1413 38.702 83.2628 37.876L82.9096 37.824L82.5564 37.7721C82.4591 38.4336 82.1844 38.8492 81.7645 39.0891L81.9416 39.3991ZM82.9096 37.824V38.181H83.812V37.824V37.467H82.9096V37.824ZM83.812 37.824L83.4581 37.7767C83.3433 38.6353 82.9875 39.244 82.4097 39.6479C81.8197 40.0605 80.956 40.289 79.7759 40.289V40.646V41.003C81.035 41.003 82.0635 40.7612 82.8189 40.2331C83.5865 39.6964 84.0291 38.8941 84.1658 37.8714L83.812 37.824ZM79.7759 40.646V40.289C78.4023 40.289 77.4386 39.9714 76.8187 39.3993L76.5766 39.6616L76.3345 39.9239C77.1366 40.6643 78.3057 41.003 79.7759 41.003V40.646ZM76.5766 39.6616L76.8209 39.4013C76.2144 38.8321 75.8672 37.8471 75.8672 36.3474H75.5102H75.1532C75.1532 37.9323 75.5168 39.1566 76.3323 39.9219L76.5766 39.6616ZM75.5102 36.3474H75.8672C75.8672 34.8004 76.2161 33.7955 76.8209 33.228L76.5766 32.9676L76.3323 32.7073C75.5152 33.4741 75.1532 34.7225 75.1532 36.3474H75.5102ZM76.5766 32.9676L76.823 33.226C77.4434 32.6342 78.4004 32.3074 79.7595 32.3074V31.9504V31.5934C78.2967 31.5934 77.1317 31.9448 76.3302 32.7093L76.5766 32.9676ZM79.7595 31.9504V32.3074C81.0637 32.3074 81.9757 32.6231 82.5629 33.1914L82.8112 32.9348L83.0594 32.6783C82.2904 31.934 81.168 31.5934 79.7595 31.5934V31.9504ZM82.8112 32.9348L82.5629 33.1914C83.1449 33.7546 83.4714 34.6603 83.4714 35.9865H83.8284H84.1854C84.1854 34.5563 83.8337 33.4276 83.0594 32.6783L82.8112 32.9348ZM79.7595 32.7379V32.3809C78.6533 32.3809 77.7501 32.6197 77.1044 33.1514L77.3313 33.427L77.5583 33.7026C78.0282 33.3156 78.7438 33.0949 79.7595 33.0949V32.7379ZM77.3313 33.427L77.1044 33.1514C76.4302 33.7066 76.1174 34.6477 76.0722 35.8583L76.4289 35.8716L76.7857 35.885C76.8279 34.7549 77.1168 34.0662 77.5583 33.7026L77.3313 33.427ZM76.4289 35.8716V36.2286H82.9096V35.8716V35.5146H76.4289V35.8716ZM82.9096 35.8716H83.2666C83.2666 34.6751 82.9983 33.7357 82.3572 33.1748L82.1221 33.4434L81.887 33.7121C82.2959 34.0699 82.5526 34.7493 82.5526 35.8716H82.9096ZM82.1221 33.4434L82.3603 33.1775C81.7441 32.6255 80.8555 32.3809 79.7595 32.3809V32.7379V33.0949C80.7636 33.0949 81.45 33.3207 81.8839 33.7093L82.1221 33.4434ZM92.4047 40.3999H92.0477V40.7569H92.4047V40.3999ZM91.7648 33.1809L91.553 33.4683L91.5566 33.4709L91.7648 33.1809ZM86.7935 35.2974L86.4365 35.286V35.2974H86.7935ZM86.7935 40.3999V40.7569H87.1505V40.3999H86.7935ZM85.8912 40.3999H85.5342V40.7569H85.8912V40.3999ZM85.8912 32.1965V31.8395H85.5342V32.1965H85.8912ZM86.7935 32.1965H87.1505V31.8395H86.7935V32.1965ZM86.7935 33.7552H86.4365V34.1122H86.7935V33.7552ZM86.9248 33.7552V34.1122H87.1727L87.2593 33.8798L86.9248 33.7552ZM92.4867 32.5903L92.2671 32.8718L92.2698 32.8739L92.4867 32.5903ZM93.3234 40.3999V40.7569H93.6804V40.3999H93.3234ZM92.4047 40.3999H92.7617V34.756H92.4047H92.0477V40.3999H92.4047ZM92.4047 34.756H92.7617C92.7617 33.9484 92.528 33.2894 91.973 32.8909L91.7648 33.1809L91.5566 33.4709C91.8548 33.685 92.0477 34.076 92.0477 34.756H92.4047ZM91.7648 33.1809L91.9766 32.8935C91.4667 32.5178 90.6925 32.3645 89.7303 32.3645V32.7215V33.0785C90.6495 33.0785 91.2316 33.2315 91.553 33.4683L91.7648 33.1809ZM89.7303 32.7215V32.3645C88.7313 32.3645 87.9123 32.5893 87.3333 33.0971C86.7479 33.6106 86.4662 34.3617 86.4367 35.286L86.7935 35.2974L87.1504 35.3088C87.1756 34.5158 87.4107 33.979 87.8042 33.6339C88.2041 33.2831 88.8262 33.0785 89.7303 33.0785V32.7215ZM86.7935 35.2974H86.4365V40.3999H86.7935H87.1505V35.2974H86.7935ZM86.7935 40.3999V40.0429H85.8912V40.3999V40.7569H86.7935V40.3999ZM85.8912 40.3999H86.2482V32.1965H85.8912H85.5342V40.3999H85.8912ZM85.8912 32.1965V32.5535H86.7935V32.1965V31.8395H85.8912V32.1965ZM86.7935 32.1965H86.4365V33.7552H86.7935H87.1505V32.1965H86.7935ZM86.7935 33.7552V34.1122H86.9248V33.7552V33.3982H86.7935V33.7552ZM86.9248 33.7552L87.2593 33.8798C87.457 33.3495 87.7759 32.9662 88.2159 32.7101C88.6622 32.4504 89.2579 32.3074 90.0257 32.3074V31.9504V31.5934C89.1746 31.5934 88.4441 31.7512 87.8568 32.0931C87.2632 32.4385 86.841 32.9577 86.5903 33.6305L86.9248 33.7552ZM90.0257 31.9504V32.3074C91.0829 32.3074 91.81 32.5152 92.2671 32.8718L92.4867 32.5903L92.7063 32.3088C92.0696 31.8122 91.156 31.5934 90.0257 31.5934V31.9504ZM92.4867 32.5903L92.2698 32.8739C92.7048 33.2065 92.9664 33.7977 92.9664 34.756H93.3234H93.6804C93.6804 33.6798 93.3843 32.8272 92.7035 32.3067L92.4867 32.5903ZM93.3234 34.756H92.9664V40.3999H93.3234H93.6804V34.756H93.3234ZM93.3234 40.3999V40.0429H92.4047V40.3999V40.7569H93.3234V40.3999ZM95.69 32.1965V31.8395H95.333V32.1965H95.69ZM96.5924 32.1965H96.9494V31.8395H96.5924V32.1965ZM96.5924 40.3999V40.7569H96.9494V40.3999H96.5924ZM95.69 40.3999H95.333V40.7569H95.69V40.3999ZM96.658 30.6871V31.0441H97.015V30.6871H96.658ZM95.6408 30.6871H95.2838V31.0441H95.6408V30.6871ZM95.6408 29.112V28.755H95.2838V29.112H95.6408ZM96.658 29.112H97.015V28.755H96.658V29.112ZM95.69 32.1965V32.5535H96.5924V32.1965V31.8395H95.69V32.1965ZM96.5924 32.1965H96.2354V40.3999H96.5924H96.9494V32.1965H96.5924ZM96.5924 40.3999V40.0429H95.69V40.3999V40.7569H96.5924V40.3999ZM95.69 40.3999H96.047V32.1965H95.69H95.333V40.3999H95.69ZM96.658 30.6871V30.3301H95.6408V30.6871V31.0441H96.658V30.6871ZM95.6408 30.6871H95.9978V29.112H95.6408H95.2838V30.6871H95.6408ZM95.6408 29.112V29.469H96.658V29.112V28.755H95.6408V29.112ZM96.658 29.112H96.301V30.6871H96.658H97.015V29.112H96.658ZM107.068 36.6099V36.9669H107.425V36.6099H107.068ZM99.6518 36.6099V36.2529H99.2916L99.2949 36.6132L99.6518 36.6099ZM100.505 39.1366L100.272 39.4069L100.274 39.4091L100.505 39.1366ZM105.181 39.3991L105.004 39.0891L105.001 39.0907L105.181 39.3991ZM106.149 37.824V37.467H105.841L105.796 37.7721L106.149 37.824ZM107.051 37.824L107.405 37.8714L107.459 37.467H107.051V37.824ZM99.8159 39.6616L99.5716 39.9219L99.5738 39.9239L99.8159 39.6616ZM99.8159 32.9676L100.06 33.228L100.062 33.226L99.8159 32.9676ZM106.05 32.9348L105.802 33.1914L106.05 32.9348ZM100.571 33.427L100.344 33.1514L100.344 33.1514L100.571 33.427ZM99.6682 35.8716L99.3115 35.8583L99.2976 36.2286H99.6682V35.8716ZM106.149 35.8716V36.2286H106.506V35.8716H106.149ZM105.361 33.4434L105.123 33.7094L105.126 33.7121L105.361 33.4434ZM107.068 35.9865H106.711V36.6099H107.068H107.425V35.9865H107.068ZM107.068 36.6099V36.2529H99.6518V36.6099V36.9669H107.068V36.6099ZM99.6518 36.6099L99.2949 36.6132C99.3061 37.8557 99.5985 38.8261 100.272 39.4069L100.505 39.1366L100.738 38.8663C100.296 38.4846 100.019 37.7705 100.009 36.6067L99.6518 36.6099ZM100.505 39.1366L100.274 39.4091C100.932 39.9659 101.866 40.2155 103.015 40.2155V39.8585V39.5015C101.955 39.5015 101.215 39.2698 100.736 38.8641L100.505 39.1366ZM103.015 39.8585V40.2155C103.967 40.2155 104.76 40.0578 105.361 39.7075L105.181 39.3991L105.001 39.0907C104.552 39.3529 103.901 39.5015 103.015 39.5015V39.8585ZM105.181 39.3991L105.358 39.7091C106.01 39.3365 106.381 38.702 106.502 37.876L106.149 37.824L105.796 37.7721C105.698 38.4336 105.424 38.8492 105.004 39.0891L105.181 39.3991ZM106.149 37.824V38.181H107.051V37.824V37.467H106.149V37.824ZM107.051 37.824L106.697 37.7767C106.583 38.6353 106.227 39.244 105.649 39.6479C105.059 40.0605 104.195 40.289 103.015 40.289V40.646V41.003C104.274 41.003 105.303 40.7612 106.058 40.2331C106.826 39.6964 107.268 38.8941 107.405 37.8714L107.051 37.824ZM103.015 40.646V40.289C101.642 40.289 100.678 39.9714 100.058 39.3993L99.8159 39.6616L99.5738 39.9239C100.376 40.6643 101.545 41.003 103.015 41.003V40.646ZM99.8159 39.6616L100.06 39.4013C99.4537 38.8321 99.1065 37.8471 99.1065 36.3474H98.7495H98.3925C98.3925 37.9323 98.7561 39.1566 99.5716 39.9219L99.8159 39.6616ZM98.7495 36.3474H99.1065C99.1065 34.8004 99.4554 33.7955 100.06 33.228L99.8159 32.9676L99.5716 32.7073C98.7545 33.4741 98.3925 34.7225 98.3925 36.3474H98.7495ZM99.8159 32.9676L100.062 33.226C100.683 32.6342 101.64 32.3074 102.999 32.3074V31.9504V31.5934C101.536 31.5934 100.371 31.9448 99.5695 32.7093L99.8159 32.9676ZM102.999 31.9504V32.3074C104.303 32.3074 105.215 32.6231 105.802 33.1914L106.05 32.9348L106.299 32.6783C105.53 31.934 104.407 31.5934 102.999 31.5934V31.9504ZM106.05 32.9348L105.802 33.1914C106.384 33.7546 106.711 34.6603 106.711 35.9865H107.068H107.425C107.425 34.5563 107.073 33.4276 106.299 32.6783L106.05 32.9348ZM102.999 32.7379V32.3809C101.893 32.3809 100.989 32.6197 100.344 33.1514L100.571 33.427L100.798 33.7026C101.267 33.3156 101.983 33.0949 102.999 33.0949V32.7379ZM100.571 33.427L100.344 33.1514C99.6695 33.7066 99.3567 34.6477 99.3115 35.8583L99.6682 35.8716L100.025 35.885C100.067 34.7549 100.356 34.0662 100.798 33.7026L100.571 33.427ZM99.6682 35.8716V36.2286H106.149V35.8716V35.5146H99.6682V35.8716ZM106.149 35.8716H106.506C106.506 34.6751 106.238 33.7357 105.596 33.1748L105.361 33.4434L105.126 33.7121C105.535 34.0699 105.792 34.7493 105.792 35.8716H106.149ZM105.361 33.4434L105.6 33.1775C104.983 32.6255 104.095 32.3809 102.999 32.3809V32.7379V33.0949C104.003 33.0949 104.689 33.3207 105.123 33.7093L105.361 33.4434ZM110.377 40.3999V40.7569H110.734V40.3999H110.377ZM109.147 40.3999H108.79V40.7569H109.147V40.3999ZM109.147 38.5623V38.2053H108.79V38.5623H109.147ZM110.377 38.5623H110.734V38.2053H110.377V38.5623ZM110.377 40.3999V40.0429H109.147V40.3999V40.7569H110.377V40.3999ZM109.147 40.3999H109.504V38.5623H109.147H108.79V40.3999H109.147ZM109.147 38.5623V38.9193H110.377V38.5623V38.2053H109.147V38.5623ZM110.377 38.5623H110.02V40.3999H110.377H110.734V38.5623H110.377ZM113.645 29.0792H114.002V28.7222H113.645V29.0792ZM113.645 40.3999V40.7569H114.002V40.3999H113.645ZM112.759 40.3999H112.402V40.7569H112.759V40.3999ZM112.759 29.0792V28.7222H112.402V29.0792H112.759ZM113.957 36.5279L113.708 36.2717L113.076 36.8849H113.957V36.5279ZM118.42 32.1965V31.8395H118.275L118.171 31.9403L118.42 32.1965ZM119.617 32.1965L119.863 32.4558L120.514 31.8395H119.617V32.1965ZM115.614 35.9865L115.369 35.7272L115.11 35.9719L115.354 36.2311L115.614 35.9865ZM119.765 40.3999V40.7569H120.591L120.025 40.1553L119.765 40.3999ZM118.6 40.3999L118.338 40.6421L118.444 40.7569H118.6V40.3999ZM115.023 36.5279L115.286 36.2857L115.18 36.1709H115.023V36.5279ZM113.645 29.0792H113.288V40.3999H113.645H114.002V29.0792H113.645ZM113.645 40.3999V40.0429H112.759V40.3999V40.7569H113.645V40.3999ZM112.759 40.3999H113.116V29.0792H112.759H112.402V40.3999H112.759ZM112.759 29.0792V29.4362H113.645V29.0792V28.7222H112.759V29.0792ZM113.957 36.5279L114.206 36.7841L118.668 32.4527L118.42 32.1965L118.171 31.9403L113.708 36.2717L113.957 36.5279ZM118.42 32.1965V32.5535H119.617V32.1965V31.8395H118.42V32.1965ZM119.617 32.1965L119.372 31.9373L115.369 35.7272L115.614 35.9865L115.859 36.2457L119.863 32.4558L119.617 32.1965ZM115.614 35.9865L115.354 36.2311L119.505 40.6445L119.765 40.3999L120.025 40.1553L115.874 35.7419L115.614 35.9865ZM119.765 40.3999V40.0429H118.6V40.3999V40.7569H119.765V40.3999ZM118.6 40.3999L118.862 40.1577L115.286 36.2857L115.023 36.5279L114.761 36.7701L118.338 40.6421L118.6 40.3999ZM115.023 36.5279V36.1709H113.957V36.5279V36.8849H115.023V36.5279ZM120.456 40.3999H120.099V40.7569H120.456V40.3999ZM120.456 39.8585L120.183 39.6277L120.099 39.7276V39.8585H120.456ZM126.28 32.984L126.552 33.2148L127.05 32.627H126.28V32.984ZM120.816 32.984H120.459V33.341H120.816V32.984ZM120.816 32.1965V31.8395H120.459V32.1965H120.816ZM127.543 32.1965H127.9V31.8395H127.543V32.1965ZM127.543 32.6723L127.816 32.9029L127.9 32.8031V32.6723H127.543ZM121.67 39.6124L121.397 39.3817L120.9 39.9694H121.67V39.6124ZM127.789 39.6124H128.146V39.2554H127.789V39.6124ZM127.789 40.3999V40.7569H128.146V40.3999H127.789ZM120.456 40.3999H120.813V39.8585H120.456H120.099V40.3999H120.456ZM120.456 39.8585L120.728 40.0893L126.552 33.2148L126.28 32.984L126.008 32.7533L120.183 39.6277L120.456 39.8585ZM126.28 32.984V32.627H120.816V32.984V33.341H126.28V32.984ZM120.816 32.984H121.173V32.1965H120.816H120.459V32.984H120.816ZM120.816 32.1965V32.5535H127.543V32.1965V31.8395H120.816V32.1965ZM127.543 32.1965H127.186V32.6723H127.543H127.9V32.1965H127.543ZM127.543 32.6723L127.271 32.4417L121.397 39.3817L121.67 39.6124L121.942 39.843L127.816 32.9029L127.543 32.6723ZM121.67 39.6124V39.9694H127.789V39.6124V39.2554H121.67V39.6124ZM127.789 39.6124H127.432V40.3999H127.789H128.146V39.6124H127.789ZM127.789 40.3999V40.0429H120.456V40.3999V40.7569H127.789V40.3999Z" fill="white" mask="url(#path-1-outside-1_2299_42650)"/>
<path fill-rule="evenodd" clip-rule="evenodd" d="M30.75 13.3846C28.2429 13.9996 28.1418 13.9154 29.1454 12.0412C29.8934 10.6435 31.1104 10.0424 33.1906 10.0424C35.7884 10.0424 35.9925 10.2128 34.7961 11.3849C34.0425 12.1236 32.2216 13.0232 30.75 13.3846Z" fill="white"/>
<path fill-rule="evenodd" clip-rule="evenodd" d="M4.96502 6.81922C3.88374 8.6513 3 10.3364 3 10.5639C3 10.7923 6.08187 10.9786 9.84902 10.9786H16.699L12.2821 23.851C9.85277 30.9312 7.56757 37.461 7.20434 38.3616C6.62298 39.8042 7.16315 39.9999 11.7157 39.9999H16.8862L18.1903 36.0876C19.676 31.6305 20.2396 31.2111 27.4163 29.2311C38.2936 26.2288 47 18.8574 47 12.6506C47 4.90568 43.2572 3.48926 22.7822 3.48926H6.93004L4.96502 6.81922ZM38.1064 10.4235C39.7681 11.0058 39.8205 10.9234 38.5745 9.6867C37.8021 8.91998 36.117 8.0793 34.8298 7.81811C31.9913 7.24143 27.3404 8.83479 27.3404 10.3832C27.3404 11.0002 25.9717 12.0646 24.2979 12.7489C21.333 13.9613 21.3124 14.009 23.4862 14.6091C25.5214 15.1699 25.5804 15.3365 24.164 16.5123C22.7195 17.7106 22.7214 17.9203 24.1855 19.538C26.6093 22.2164 35.1603 21.9899 37.1169 19.1954C38.8722 16.6893 39.0107 12.7592 37.4043 11.0282C36.4428 9.9919 36.5683 9.88424 38.1064 10.4235ZM27.8085 24.085C28.1268 23.5701 27.6035 23.1488 26.6467 23.1488C25.69 23.1488 24.4486 22.691 23.8888 22.1312C23.1557 21.3982 22.6951 21.3982 22.242 22.1312C21.2722 23.7002 22.5332 25.0212 25 25.0212C26.2264 25.0212 27.4902 24.5999 27.8085 24.085Z" fill="white"/>
<path d="M43.2083 14.0762C43.2083 19.4071 30.5803 27.1909 23.6946 27.1909C16.8089 27.1909 18.273 19.4071 18.273 14.0762C18.273 8.74535 23.855 4.42383 30.7407 4.42383C37.6264 4.42383 43.2083 8.74535 43.2083 14.0762Z" fill="white"/>
<mask id="mask0_2299_42650" style="mask-type:alpha" maskUnits="userSpaceOnUse" x="20" y="7" width="22" height="22">
<g clip-path="url(#clip0_2299_42650)">
<path d="M38.8218 16.8943L30.7707 19.169C30.3299 19.2577 29.9417 19.5163 29.6902 19.8891C29.4387 20.2618 29.344 20.7185 29.4268 21.1605L29.4278 21.1667C29.5084 21.3775 29.6296 21.5703 29.7847 21.7342C29.9398 21.898 30.1256 22.0298 30.3316 22.1218C30.5376 22.2138 30.7598 22.2643 30.9853 22.2704C31.2108 22.2766 31.4354 22.2382 31.6461 22.1575L31.6402 22.1599L39.6686 19.8916C39.7205 19.882 39.7699 19.8621 39.814 19.8332C39.8581 19.8042 39.8959 19.7668 39.9253 19.723C39.9548 19.6792 39.9751 19.63 39.9853 19.5783C39.9955 19.5265 39.9952 19.4733 39.9845 19.4216L39.3373 17.1308C39.2965 17.0366 39.2229 16.9604 39.1302 16.9163C39.0375 16.8723 38.932 16.8633 38.8332 16.8911L38.8211 16.8945L38.8218 16.8943ZM31.4583 21.603C31.2691 21.6564 31.0683 21.6526 30.8813 21.5919C30.6942 21.5312 30.5294 21.4165 30.4076 21.2621C30.2858 21.1078 30.2125 20.9207 30.197 20.7247C30.1814 20.5287 30.2244 20.3325 30.3204 20.1609C30.4164 19.9893 30.5611 19.85 30.7363 19.7607C30.9114 19.6713 31.1091 19.6359 31.3044 19.6589C31.4997 19.6819 31.6838 19.7624 31.8333 19.89C31.9829 20.0176 32.0913 20.1867 32.1447 20.376L32.1455 20.3786C32.2945 20.9058 31.9875 21.4535 31.461 21.6022L31.4583 21.603ZM22.7012 11.7466L23.9117 16.0311L24.8269 15.7725L24.3098 13.942C24.4085 13.9387 24.5197 13.9231 24.6306 13.8962L24.6332 13.8954C24.9638 13.8012 25.2436 13.58 25.4115 13.2801C25.5794 12.9802 25.6217 12.626 25.5291 12.2949C25.4968 12.1867 25.4515 12.0829 25.394 11.9856L25.3989 11.9951L30.4113 10.5789C30.4157 10.6871 30.431 10.7946 30.4571 10.8997L30.4579 10.9024C30.5521 11.233 30.7733 11.5128 31.0732 11.6807C31.3731 11.8486 31.7273 11.8909 32.0584 11.7983C32.1696 11.7625 32.2732 11.7174 32.369 11.6628L32.3589 11.6679L32.8761 13.4983L33.8134 13.2335L32.6029 8.94902L22.7012 11.7466ZM34.0604 12.6017L35.2252 12.2726C35.0661 12.044 34.8493 11.8615 34.5969 11.7438C34.3445 11.626 34.0655 11.5772 33.7881 11.6022L33.7784 11.6035L34.0604 12.6017Z" fill="black"/>
<path d="M30.5656 18.6866L38.5526 16.43L37.8651 13.9967C37.7289 13.6454 37.4602 13.3617 37.1168 13.2067C36.7734 13.0517 36.3828 13.0378 36.0293 13.168L36.034 13.1667L23.3491 16.7506C23.3349 16.7421 23.3181 16.7389 23.3018 16.7416C23.2021 16.7254 23.1085 16.6827 23.031 16.6179C22.9534 16.5531 22.8948 16.4687 22.8611 16.3734L22.8607 16.3721C22.8378 16.2487 22.8529 16.1214 22.904 16.0068C22.9551 15.8922 23.0398 15.7959 23.1469 15.7306L23.1507 15.7288L22.8511 14.6684C21.9884 14.9569 21.6338 16.4045 22.0746 17.9646L24.6778 27.1786C24.8142 27.5293 25.0827 27.8126 25.4257 27.9675C25.7687 28.1224 26.1588 28.1366 26.5121 28.007L26.5074 28.0083L39.1923 24.4244C39.5593 24.3493 39.8825 24.1337 40.0928 23.8237C40.3031 23.5136 40.3838 23.1336 40.3178 22.7648L40.317 22.7593L39.6295 20.326L31.6867 22.5701C30.3975 22.9343 29.1103 22.3545 28.8107 21.2941C28.5052 20.2129 29.298 19.0454 30.5665 18.6871L30.5656 18.6866Z" fill="black"/>
</g>
</mask>
<g mask="url(#mask0_2299_42650)">
<path d="M41.5281 9.46576C43.3719 13.67 40.065 19.3377 33.6673 22.1434C27.2696 24.9492 22.9787 26.819 21.1349 22.6148C19.6307 17.7432 19.3163 12.4496 25.22 8.2857C31.6176 5.47997 39.6843 5.26156 41.5281 9.46576Z" fill="#111111"/>
</g>
<defs>
<clipPath id="clip0_2299_42650">
<rect width="16.6854" height="16.6854" fill="white" transform="translate(20.4961 12.3701) rotate(-15.7768)"/>
</clipPath>
</defs>
</svg>
